<svg xmlns="http://www.w3.org/2000/svg" viewBox="0 0 416.1 295.9"><style>.st0{fill:#fff}.st1,.st2{fill-rule:evenodd;clip-rule:evenodd;fill:#002f65}.st2{fill:#fff}.st3{fill:#e31b4d}</style><g id="Player"><path class="st0" d="M412.1 72.7l2.3-2.3-6.8-8.9 3.3.2s-2.3-4.1-4.9-4.1c-1.3 0-4.6.2-7.4.4-.7-.1-1.6-.2-2.6-.4-6.3-.9-14.2 1.3-19.7 1.3s-9.3.1-15.2 2c-5.9 1.9-6.6 1.6-8.3 3.4-1.3.6-1.5 1.6-2 1.6-.5-.1-2-2.1-2-3.2s-1.6-2.4-2.9-2.7c-1.4-.3-5.7-6.8-5.7-6.8s-15.7-22.3-22.5-25.4c-6.8-3.2-49.8-3.9-52.6-3.9-2.8-.1-6-.6-6-.6-9.2-3.9-47.3-13.1-51-12.8-3.7.4-9-1.6-11.5-1.5-2.6.1-6-.7-7.4-1-1.4-.3-6.2-.5-9.5-5.6-1.5-2.4-2.5-2.2-2.5-2.2-2.3 1.3-.4 5.3.5 6.7.9 1.4 2.6 2.8 2.6 2.8l.1.1c-4.7-.9-14.5-2.7-15.4-2.9-2.4-.5-1.4 2.9.8 3.9 1.1.5 8.5 3.1 14.5 4.5-3.3 0-15.5 0-16.4.1-1 .1-3.9 3 4.8 4.2 3.8.5 8.1.2 11.8-.2-2.2 1.1-5.9 2.8-12.1 5.3 0 0-2.6 2.3 2.1 2.8 3.5.3 9-2.1 12.1-3.6 1.5-.6 2.8-1.2 3.2-1.2.9 0 1.3 0 1.3.9s-3.3 3.6-4 4.3c-.7.7-3.7 4.6.6 4.2 4.3-.4 7.3-6.5 8-6.3.7.1 8.9-1.3 10.5-1.3 1.6 0 8 1.4 11.6 3.2 3.6 1.7 30 14.1 31.5 14.9 1.1.6 4 1.8 5.5 2.5.3-8.5 2.1-10.2 2.1-10.2-1.2 3.8-1 11.2-1 11.2l.1.7c-.3 10.2 2.2 8 4 9.2 1.9 1.1 2.9.7 5.9 2.6 3 1.9 4.6 0 4.4 2.9-.1 2.9-2.4 3.4-3.2 5.9-.7 2.4-11 10.8-14.3 12.8-3.3 2-12 10.9-13 12.2-1 1.3-8.2 2.7-9.6 3.3-1.4.6-3.7 1.6-5.9 4.3-2.1 2.7-2.4 2.9-3.3 5.7-.9 2.9-1.3 6.6-1.3 6.6-7.3 6.5-32 47-32 47s-9.2 18.1-11.8 23.7c-2.6 5.6-4.2 10-4.2 10s-6.6 18.4-8.2 22.5c-1.6 4.2-1.6 11.3-2.3 14.1-.7 2.7-.3 4.2.9 6.9 1.1 2.6 7.4 14.1 8.1 16.6 1.9-.8 3.3-2 3.3-2-.7 1.5-2.1 2.5-3.4 3.3-.2.3-.7.3-1.4.8-1 .7-2 .7-4.6.7-2.6 0-4.9 2.7-6.6 3.9-1.7 1.1-5 2.3-10.6 2.4-5.6.1-19.4 7-18.1 11.8 1.3 4.7 5 5.6 7.7 7.5 2.7 1.9 22.4-.3 27.2-1.9 4.9-1.6 11-1.7 16.8-1.7 5.7 0 9.5-1.2 9.6-5 .1-3.9-1.3-16.5-1.9-18.4-.6-1.9-.9-1.4 1.1-11.8 2-10.3 1.3-17.1 1.3-17.1 6.5-5.3 10.3-22.1 12.5-20.8 2.2 1.3 24.4 3 26 2.1 1.6-.9 23.9-28 24.8-26.7.9 1.3 8.3 3.6 11.2 5.7 2.7 2 30.7 1.9 34.1 2.8 3.2.1 11.1.7 16.6 4.3 0 0-9-3.2-15.7-2.6.9 1.9 2.5 5.3 2.8 10.7.3 7.3 5.3 17.9 7.2 20.6 1.9 2.7 8.5 22.4 10.5 31.5 2 9.2 2 15.6 1.7 16.5-.3.9-.1 1.3-.9 3.2-.7 1.9-1.4 14.8-.7 16.6.7 1.9 10.5 2 11.6 2.7 1.2.7 1 1.3 2.9 2.4 1.9 1.1 14.5 1.6 17.8 1.4 3.3-.1 7.5 1.3 7.3-2.2-.1-3.4-4-9.3-4.9-10.3-.9-1-3.9-4-5.9-9.7-2-5.7-8-8.5-9.7-9.6l-.1-.1c-.7-.4-3.2-1.7-4.6-1.5 0 0 1-.6 3.5.3 0-.3 0-.7-.3-1.5-.6-2-2-5.7-2-5.7.4-19.8-1-54.3-2.2-62.4-1.1-8-4.7-13.8-5.4-14.5-.7-.7-1.6-1-1.6-1-4.9-13.2-6.6-13.6-8-15.9-1.4-2.3-9.3-7.9-9.3-7.9s1.3-.6 3.2-.1c1.9.4 10.3-2 14.2 0 3.9 2 3.3.1 3.4 1.7.1 1.6 1.4 1.4 2.7 2.7 1.3 1.3.3 1.1-1.4 2.7s-1.1 2.9-1.1 4.4c0 1.6-1 6.2-1.3 7.9-.3 1.7 1.9 5 2.7 10.6.8 5.2 5.5 3.2 6.2 3.7h5.1s-2.7.5-4.8.8c1.1 2.4 6.1 10.3 7.1 11.4 1.1 1.3 2.6 1.3 1.9 3.4-.7 2.2.7 13.9.7 16.1 0 2.2-.7 5.2-1.4 9.3-.7 4.2.4 7.7 2.4 7.2 2-.6 4-12.9 4.6-13.9.6-1 .6-.7 1.3-.1.7.6.4 6.7.7 11.3.3 4.6 3.2 4.3 4 3.4.9-.9.9-6.3.7-9.2-.1-2.9-.6-6.5.1-5.9.7.6 2.9 7 3.9 9.3 1 2.3 3.4 5.6 4.2 2.4.7-3.2.4-7.2.4-7.2 2.3.9 2.4-1.7 2.4-1.7.3-5.9-3.6-12.3-4.4-13.8-.9-1.4-.7-2.7-1.6-6.7-.9-4 .3-4.7.3-4.7 7.9 0 8.5-2.4 8.7-4.4.3-2-1.1-1.9-1.1-1.9-6.6.9-8.2-.7-9.2-1.3-1-.6-.6-1.3-.7-2.2-.1-.9-.1-5-.1-5s.4 1.2 1.1-5c.7-6.2-1.3-9.5-1.4-12.5-.1-3-2.9-6.2-2.4-9.2.4-3 .6-4.2 0-9-.6-4.9-1.3-5.7-1.3-11.6 0-5.9-1.4-15.9-1.4-17.3 0-.9-1.2-4.2-1.8-7l-6.5 2.8 6.2-5.7c0-.3.1-.6.2-.8 1.1-1.9 3.3-6 3.2-8-.1-2 1-6.2 1-6.2v-.1c3.1-1.1 12.4-.7 12.4-.7 0 4.4 1 6 3.6 7.4 2.5 1.3 8.3 1.7 10.3 1.7 1.3 0 1.4-1.5 1.4-2.5l-3.6-.8h3.5v-.1h11s1.9-.5 5.4-.5c3.5 0 4.7-4.7 4.7-4.7s.9 2.3 2.3.9 5.6-7.7 5.6-7.7 3.3 2.3 3.3-1.2c-.3-3.4-4.3-13.7-4.3-13.7z"/><path class="st1" d="M376.3 35.4c0 .3.2.4 0 .8-.2-.1-.4-.1-.6-.1.1-.5.2-.7.6-.7z"/><path class="st1" d="M376.3 35.4c0 .3.2.4 0 .8-.2-.1-.4-.1-.6-.1.1-.5.2-.7.6-.7z"/><circle transform="rotate(-5.177 382.227 33.79) scale(.99998)" class="st2" cx="382.2" cy="33.8" r="29"/><path class="st1" d="M364.7 37.3c.2-.6-.3-1-.8-.5.1.4.6.5.8.5zm-1.3-12.5c.2 0 .5 0 .7-.1-.2-.9-1.5-1.2-.7.1zm1.3 1.9c-.2-.3-1.2-.3-.9.5.2.1 1.4.3.9-.5zm-.6 11.8c.1.3 0 .2.2.3.6.7.9-.7-.2-.3zm-.6-10c-.6.5.2.6.8.7-.1-.6-.4-1.3-.8-.7zm1.4 7c.4-.5-.9-1.1-.8-.5-.6.4.6.8.8.5zm-1.3-12.9c.5.6 1.3.8.9-.3-.4 0-.7.1-.9.3zm3.2-3.5c.2 0 .4.1.6.1.7-.5-.4-1.1-.6-.1zm.1 1.1c-1.6-.4-.3 1.5 0 0zm.6-3v.4c.2 0 .4.1.6.1.1 0 .2-.3.3-.4-.2-.1-.5-.2-.9-.1zm-1.5 7.6c.2 0 .5 0 .7-.1-.1-.3 0-.2-.2-.4-.4-.3-.4-.1-.5.5zm-1-.9c.5.1.4-.1.6-.4.2-.1-1.1-.7-.6.4zm.4 2.2c.9 1.4 1.3-1.2 0 0zm-.8-.5c.8.1.5-.5.3-.8-.3 0-.5.1-.7.3.1.2.2.4.4.5zm1.9 21.6c-.4-.5-.5-1-1.4-.6.4.5.8.7 1.4.6zm2.3 4.9c.3.4.7.4.9.1-.2-.1-.4-.2-.9-.1zm.8 2.3c-.4-.5-.7-.9-1.4-.6.3.3.5.5.8.7.2 0 .4-.1.6-.1zm-.9-1.5c.1-.1-.7-.6-1.2-.4.3.4.6.5 1 .7.2-.1.1-.1.2-.3zm3.3 3.2c.1-.5-.2-.4-.8-.5.2.4.3.6.8.5zm-1.7-2.5c.2-.1.1 0 .2-.2-.2-.1-.5-.1-.8-.1-.1.4.4.7.6.3zm-5.5-12.7c.4-.7-.7-1-.8-.5.2.4.5.4.8.5zm6.5 13.9c-.2-.4-.5-.3-1-.3.3.4.4.3 1 .3zm-3.5-3.6c-.5-.3-.8-.2-.7.4.3 0 .6.1.9.1 0-.1-.1-.3-.2-.5zm-.4-.9c.3-2-2.2.8 0 0zm.4-30.7v.4c.2 0 .5 0 .7-.1-.1-.4-.4-.3-.7-.3zm-2.4 22.9c-.2-.6-.6-.5-1-.7.1.6.3 1 1 .7zm-.2 4.1c-.2-.5-1-1.2-1.6-1 .3.9.7 1 1.6 1zm.8 4.6c.2-.1.3-.2.5-.2-.2-.3-.6-.5-1-.7-.2.9 0 .4.5.9zm-.7-3.1c.1-.7-.4-.9-1-.7.2.6.4.7 1 .7zm.5 1.4c-.2-.5-.5-.6-.8-.7h-.2c.1.7.3 1 1 .7zm6.4-15.8v.4h.2c-.1-.3 0-.3-.2-.4zm-.4-2.2c.2.2.1.1.4.2-.1-.1 0-.4-.4-.2zm.5 5.7V37c-.4-.1-.4.1-.5.2h.5zm-.1-7.4c.2.2.1.1.4.2-.1-.1 0-.4-.4-.2zm-.3 3c.2.2.1.1.4.1-.1 0 0-.3-.4-.1zm.9 23.9c-1.7-.3.2 1.2 0 0zm1.2-3.4c-.5-.1-.8 0-.7.4.4 0 .6-.1.7-.3v-.1zm-1.5-4c-.1-.3-.4-.3-.8-.3v.4c.3 0 .6-.1.8-.1zm.1 5c0-.5-.3-.5-.8-.3.3.3.3.5.8.3zm.3-10.4c-.1-.3 0-.5-.6-.3.3.2.3.2.6.3zm-4.8-20.3c0 .5.1.9.5.9-.1-.4-.1-.7-.5-.9zm4.1 35c.2 0 .5 0 .7-.1-.2-.3-.8-.6-1.3-.4.2.2.4.4.6.5zm0-16.3c.2-.1.3-.2.5-.2v-.2c-.4-.2-.5 0-.5.4zm-.2-6.9c.2.2.1.1.4.2-.2-.1-.1-.4-.4-.2zm-.1 3.2c.2.6.7.1 0 0zm.2 2c.2 0 .4 0 .6-.1v-.2c-.5 0-.5.2-.6.3zm-1.6-9.7c-.3-.3-.2-1-.5-1.3.2 0 .4-.1.6 0-.7-1.6-1.4 1.3-.1 1.3zm-.7-11.5v.2h.4c-.1-.3 0-.2-.2-.4-.1.1 0 .2-.2.2zm.5-4.2c.1.3 0 .2.2.4.7.6.9-.8-.2-.4zm-1 1.4v.4c.3.1.6.1.9-.1-.1-.3-.4-.3-.9-.3zm-1.1 11.9v.4c.2 0 .5 0 .7-.1 0-.4-.3-.3-.7-.3zm.4-10.1c.4.2.7.2.9-.1-.2-.5-.7-.4-.9.1zm2.2 0c.2-.1.4-.1.5-.2-.1-.2-.2-.3-.4-.3 0 .1 0 .3-.1.5zm3.1 34.1c0-.2 0-.4-.1-.6-.6.1-1-.1-1.5-.2.4.8 1.1.6 1.6.8zm-1.7-37.6c.2.4.3.7.8.5-.2-.4-.3-.7-.8-.5zm1 30.2c-1.1 0 0 .9 0 0zm.4-28.7c-.1-.2-.2-.3-.4-.3-.1.1-.1.3-.2.4.2 0 .4-.1.6-.1zm-1.7 1.3c.2 0 .4 0 .6-.1-.1-.2-.2-.3-.4-.3-.1.1-.2.3-.2.4zm-.8-3.8c-.1.6.3.7.8.5-.1-.5-.2-.7-.8-.5zm.3 2.4v.4c.2 0 .4 0 .6-.1-.2-.4.5-.1-.6-.3zm1.8-2.6c-.1.5.2.4.8.5-.2-.4-.3-.7-.8-.5zm37.5 13.5l-.4.2c.1.5.3 1 .3 1.5.3-.2.3-1.2.1-1.7zM395.1 7.4c.2.3.2.3.6.3v-.2c-.2 0-.4-.1-.6-.1zm-14.7 53.3c.1.1.2.2.4.3-.1.1-.2.3-.1.2h.6c-.3-.5-.4-.7-.9-.5zm30.3-33.5c-.1-.1-.7-2.9-.9-2.9.1 0-1.5-3.4-1.5-3.6-.3-.8-.9-1.5-1.1-2-.2-.7-.7-1.6-1.2-2-1-.9-1.3-2.5-2.6-3.3-.6-.4-.9-1-1.6-1.4-.4-.4.4-.1-.6-.8-.5-.4-1-.7-1.4-1.1-.4-.5-1.4-1.2-2.1-1.3-.3-.5-1.4-1.1-2-1.1.8 1.2 2.8 1.3 3.2 2.7.1-.1.2-.1.4-.2.1.1.1.2.4.3v.4c.3.1 1 .3 1 .7 0 .2.7.9.8 1 .8.4.4.5 1 .7-.2.5.7.9.9 1.6.1.1.6.4.8.7.3.3.7 1.3 1.1 1.5.4.2.7 1 .9 1.3.1.2.5.5.6.7v.4c0 .3.3.1.4.3l.5 1.1c.4.9.3.2.6.7.3.5.8 1.2.6 1.9-.1.3.5 1 .6 1.5.1.8.7 1.7.4 2.8l.4-.2h-.2l.6-.4zm-39.5 30.4c.2 0 .5 0 .7-.1-.2-.4-1-.5-1.5-.4v.2c.4.3.4-.1.8.3zm8.8 2.9c.2.2.1.1.4.2v-.2h-.4zm-.4-.1c.2.2.1.1.4.2v-.2h-.4zm-9.3-4.9c-.4-.5-.7-.7-1.3-.4.3.3.7.4 1.3.4zm28.4 1.9c.2.2.1.1.4.2-.1-.2 0-.4-.4-.2zm-2.6-1.9c-.1-.3 0-.2-.2-.4 0 .2 0 .2-.2.4.2.1.3.1.4 0zm6.6-1.3c-.5 0-.5.5-1.1.7.3.5 1-.4 1.1-.7zm2.7-12.2c.2.2.1.1.4.2V42h-.4zm.3.2c.2.2.1.1.4.1-.1 0 0-.2-.4-.1zm.8.3c.5.6 1.3.7 1.8 1.3h.6c-.4-.6-1.7-1.2-2.4-1.3zM402.7 54c.2.4 1.1-.7 1.2-1-.6.2-.8.6-1.2 1zM391.1 6.3c.2.2.4.3.6.3-.2-.3 0-.5-.6-.3zm-.9-.1v.2c.2 0 .2.1.4.2-.1-.4 0-.6-.4-.4zm5.8 45.4h.2V51c-.2.2-.4.2-.2.6zm-6-45.8c-.2-.4-.6-1.1-1.4-.8.3.3.5.1.8.3-.3.5.2.5.6.5zm-16.2 52.3c-.2-.3-.5-.4-1-.5-.1.1 0 .1-.2.2 0 .2.3.2.4.3.4.1.6 0 .8 0zm-13.2-15c.4.4 1.4.6 1.8.8.5 0 1.1-.2 1.9 0 .1-.1-.1-.2.2-.2v-.2c-.5 0-1.2-.1-1.5-.1-.9.1-1.4-.6-2.3-1.1-.4.4-.3.6-.1.8zm34.3-35.9c0-.4-.2-.2-.8-.3.3.4.3.3.8.3zm-6-1.1c.2.3.2.3.6.3-.2-.3-.1-.5-.6-.3zm3.9 0c-.2 0-.4.2-.5.2.2-.6-1.4-1-2.1-.9.4.5 1.2.6 1.7.6.2.6.9 1 .9.1zm-16.1 5c-.1-.5-.3-.8-.7-1.1.1.5.2 1.1.7 1.1zm-2.6-3.7c.3.6.9 1 1.4.8 0 .3.1.6.1.9.9-.4 1-.5.3-1.1-.2-.2-.7-1.1-1-1.1-.8.1-.8.4-1.3.1.2.5.2.3.5.4zM389 5.7c-.1-.3 0-.2-.2-.4 0 .3-.3.1-.7.1.3.3.5.3.9.3zm-25.1 25.2c.4-.4-.3-.9-1-.7.2.5.5.9 1 .7zm23.9-24.7c.2.3.1.2.6.3 0-.3-.2-.2-.6-.3zm-.3 1.3c.2.2.1.1.4.1-.1 0 0-.2-.4-.1zm6.1-.1s.6 0 .4-.2c-.1 0-.2-.1-.2 0 .2-.6-.5-.9-1-.8.3.6.6.3.8 1zM376.7 34c.3.2.3 0 .4 0h-.4zm.4-24.8c-.3 0-.6-.1-.9-.1.2.7.8.7.9.1zm.4 45.8h-.6v.2c.5.1.5-.1.6-.2zm0-41.3h-.4c.3.2.3 0 .4 0zm-.6-2c0 .2 0 .4.1.6h.2c0-.5-.2-.5-.3-.6zm-.8 42.1c.2.2.4.3.6.3-.2-.2-.1-.5-.6-.3zm1.1-42.7c.4.1.4-.1.5-.2-.2 0-.4 0-.6.1.1 0 .1 0 .1.1zm.2 44.8c.2.2.4.3.6.5.3-.3 0-.5-.6-.5zm-2.1.2c.1-.2.1-.3.3-.6l-.6-.3c-.1.1-.3.4-.3.4.2.4.2.4.6.5zm.6 2.6c.2-.2.1 0 .2-.2-.4-.1-.7-.1-1.1-.1.3.4.6.5.9.3zm-1.8-2.3c.1-.1.3 0 .2-.2-1.6-.2-.7 1-.2.2zm2.9 3.1c.2-.1.1 0 .2-.2-.6-.1-.9-.3-1.1.3.4 0 .7.2.9-.1zm19-5.1v.4h.2c0-.3 0-.2-.2-.4zm-20.2-1.3c.2 0 .5 0 .7-.1v-.2c-.4 0-.6.1-.7.3zm.6 3.9s-.5 0-.2-.1c.1 0 .3 0 .4-.1-.1-.3-.4-.3-.8-.3-.2.9 0 .6.6.9.7.4.7 1.5 1 .1-.6-.1-.8-.1-1-.5zm3.6 3.2c0-.4-.2-.2-.8-.3.3.3.2.3.8.3zm-1.2-.5c.3-.6.1-.8-.6-.7.1.4.3.4.6.7zm-1-25.4c.2.2.1.1.4.2-.1-.1 0-.3-.4-.2zm-10.1-13.2c-.2.1-.4.2-.5.2-.1.8.6.7 1.2.8 0-.7-.6-.4-.7-1zm28.6 7.1c.2.2.1.1.4.2-.2-.2-.1-.4-.4-.2zM378 60.5c.1-.1.1-.2.2-.4-1.7-.2-.7.7-.2.4zm18.2-6.6c.1-.1.3-.2.1-.6h-.2c0 .2.1.4.1.6zM379.4 8.6c-.3.4 0 .6.6.5.1-.4-.1-.4-.6-.5zm-.6 1.2c-.2 0-.4-.1-.6-.1.1.5.4.4.6.1zm-.4 42.5c-.2 0-.4 0-.6.1.1.1.2.3.6.1v-.2zm-1 6.1c.2.3.3.4.4.7.4-.2.1-.1.3-.6-.2-.1-.4-.2-.7-.1zm1.9-23.9h-.4c.4.3.3.1.4 0zM378.2 57c.2.2.5.3.8.3 0-.5-.3-.5-.8-.3zm1.6.8c-1.1 0-.1.9 0 0zm-1 1.9c.2.2.1.1.4.2-.1-.1 0-.3-.4-.2zm-4.6-26c.4.1.4-.1.5-.2h-.6c.1.1.1.1.1.2zm-.1 16.4c.2 0 .4 0 .6-.1v-.2c-.5 0-.5.2-.6.3zm.7 3.7c.4-.2.1.5.3-.6-.6-.1-.3.2-.3.6zm-.6-41.1c-.2.2-.2.2 0 .4.9.7.4-1.7 0-.4zm1.5 1.7l.2-.4h-.4c0 .3 0 .2.2.4zm-.4 37.3c-.1-.1 0-.3-.4-.2.2.2.1.1.4.2zm-.3-5.4c.2.2.1.1.4.2-.1-.1 0-.4-.4-.2zm-8-1.9c-.3.2-.2.1-.6 0 .2.7.3 1.2 1 .8 0-.3-.2-.5-.4-.8zm-2.5-10.5c-.3.1-.2.1 0 0zm.6-.3c-.2-.5-.4-.7-1-.5.1.3.1.4.4.5.1.1 0 .2-.1.3.2-.1.4-.2.7-.3zm-.8-2.4c0 .4.1.5.3.7.2 0 .5 0 .7-.1-.2-.5-.4-.6-1-.6zm11.5-19.6c-.3-.1-.5-.3-.8-.3-.1.7.6.7.8.3zm-10.3 36.5c.5.5.8 1.1 1.6.8-.5-1.2-1.1-.6-1.6-.8zm7.1 7c.1.3-.1.1-.2.2.2.3.4.1.8.1-.1-.2 0-.2.1-.2-.1 0-.2 0-.7-.1zm1-6.5c.4.1.4-.1.5-.2-.2 0-.4 0-.6.1 0 0 0 .1.1.1zm-8.3-19.3c-.2.1-.5.2-.7.3.1.2.2.4.2.5.2 0 .4.1.6.1.1-.7.1-.4-.1-.9zm-5.1 11.4c.1.6.5 1.1 1.2.8-.2-.5-.6-.9-1.2-.8zm2.1-1.6c-.2-1.1-1.5-1.4-.6 0h.6zm.3 3.3c.1-.6-.3-.7-.8-.9-.3.9 0 .8.8.9zm-.2-1.7c-.1-.6-.4-1.1-1-.8.1.4.2.6.5.9.1 0 .3-.1.5-.1zm2.1 4.1c0-.8-.5-.8-1.2-.5.4.5.5.7 1.2.5zm-2.2.1c-.6-.1-.6-.4-1.4-.5.1.3.5.9.8.9.2 0 .4 0 .5-.1.3.7.5.6 1.2.6-.2-.5-.6-.8-1.1-.9zm0-7.7c-.1-.6-.4-.8-.8-1-.4.6-.2 1.4.8 1zm1.4-2.7c-.2-.6-.5-.9-1.2-.6.2.5.6.8 1.2.6zm-.1 5.4c0-.9-1.2-.9-.9-.1.3 0 .6 0 .9.1zm-.1-3.6c.1-1.3-2.2-.2 0 0zm-.7 5.1c.3 0 .6.1.9.1-.2-.8-.6-1-.9-.1zm.6-3.9c-.3 0-.5-.1-.8-.1-.1.1 0 .1-.2.2.4.6 1.3.7 1-.1zm.3-4.7c-.7-2.4-1.3.5 0 0zm.4 10.4c-.2-.6-.5-.7-1.2-.5.1.2.3.3.4.5.3.1.6 0 .8 0zm4.2-11.2c-.5-.1-.8 0-.7.4.5.4.8.2.7-.4zm-.4-6.3v-.2c-.4-.1-.6-.2-.6-.2.1 0 .1.1.1.2h-.2c.2.3.4.3.7.2zm.4 18.8c.3.4.3.6.8.5.4-.7-.2-.7-.8-.5zm-.3-1.9c.1.3.1.4.4.5.1.1 0 .2-.1.3.1-.1.3-.2.7-.3-.3-.5-.4-.7-1-.5zm.3.8c-.3.2-.2.1 0 0zm.5-18.7c.2.5.1.4.6.5-.2-.5-.1-.4-.6-.5zm.6 2.5c-.2-.4-.3-.6-.3-1.1-.2 0-.2.1-.4.2.1.8.1.8.7.9zm-.7-1.6c.1-.1.3-.2.1-.6h-.2c0 .3.1.4.1.6zm-.9 4.8c.1.2 0 0 .2.2.1.2.2.3.6.1-.1-.2-.3-.4-.3-.5 0 .1-.4.1-.5.2zm.2 10.9c.4.3.4.1.5-.4-.2 0-.5 0-.7.1.1.2.1.2.2.3zm1.3-20.9c.4-.2.3-.3.1-.6 0 .2 0 .4-.1.6zm-.9 18.8c-1.7-.3.2 1.2 0 0zm-.3-3.1c.1-.5-.2-.4-.8-.5.2.4.3.7.8.5zm-.5-2c.6.6.9-.6-.2-.2.1.2 0 .1.2.2zM365 45c.1-.3-.4-.1-.6-.1.4.2.2.3.6.1zm2.8-6.8c.4-.1.6-.5.5-1-.2.2-.5.3-.9.3.1.2.3.4.4.7zm3.2-5.3c.7-.3.1-.7 0 0zm-1.4 2.5c-.1-.3 0-.2-.2-.4 0 .2 0 .2-.2.4h.4zm-.1 1.7c.2.2 0 .1.2.2.6.5.9-.6-.2-.2zm.5 5.2c.2.2 0 .1.2.2.6.5.9-.7-.2-.2zm-.8-14.7v.4h.2c-.1-.3 0-.2-.2-.4zm1.1 16.3c.1.3 0 .2.2.4.1.2.2.3.6.1-.1-.4-.2-.7-.8-.5zm1.1 2v-.2c-.2 0-.5 0-.7.1.2.2.2.5.6.3.1-.1-.1-.3.1-.2zm-.7-18.6c.2.2.1.1.4.2-.1-.1-.1-.3-.4-.2zm-1.6 19.3c.3-.2.2-.1.6 0-.5-1.3-1.3-.6-.6 0zm-.5-25.4c.5.1.7-.4.7-.6v-.2c-.6-.1-.6.1-.7.8zm1.2 10.5h-.2c.2.5.8.9.8.1-.4-.1-.6.2-.6-.1zm.6 9.2c.1-.5-.1-.7-.6-.5.2.4.2.4.6.5zm.1-7.2c-.4 0-.8-.1-1.1-.1.3.7 1 .9 1.1.1zm-.1 5.2c-.2-.1-.5-.1-.8-.1.1.6.7.4.8.1zm-.1-3.6c-1.1.1-.1.9 0 0zm-3.8-.5c-.1-.3 0-.2-.2-.4-.6-.6-.9.8.2.4zm-.6 7.1c-.4 0-.2.2-.3.8.4 0 .4-.4.3-.8zm.7-8.8c.1-.1-.1-.2.2-.2-.2-.4-.5-.3-1-.3.2.2.4.4.8.5zm-1 3.4c.3 0 .5.1.8.1 0-.7-.9-.7-.8-.1zm6.8 14.1v.4c.2 0 .5 0 .7-.1 0-.3-.3-.3-.7-.3zm13.5 10.9v-.2c-.2 0-.5 0-.7.1.2.2.2.5.6.3 0-.1-.2-.2.1-.2zm-19.5-19.7c.1.1.2.3.6.1-.3-.6-.6-.6-.5-1.4-.7.3-.7.9-.1 1.3zm.3-1.5c.3-.3.3-.4.3-.8-.4.2-.8.1-1.3.1v.4c.4.1.8 0 1 .3zm-1-1.9c.2 0 .5 0 .7-.1-.3-.3-.4-.7-1-.5.2.2.3.4.3.6zm32 19.8c-.4.1-1 .5-1.3.5-.1 0-.7.2-.9.3-.4.2-1.5 1.1-2.1 1.1-.1 0-2 .9-2 .8 0 .2-3.9 1-4.4 1 0-.5-.5-.4-1-.3v.2c.2 0 .4 0 .6-.1-.8.8-1.9 0-2.8.1-.6.1-.1-.3-.9-.4-.7 0-.9-.6-1.7-.3.5.5 1 .7 1.7.6v.2c-.8-.1-.3.4-.9.5-.5 0-1.6 0-.6-.3v-.2c-.8.2-1.5 0-2.2.2v-.2c.4-.2.6-.1 1.1-.1-.1-.5-.8-.5-1.2-.8-.2-.1-.8-.7-1.1-.3h.2c-.3.7.4.5 1 .7-.4.5-1.1.3-1.6.3v-.2h.6c-.1-.5-1.3-.4-1.5-.4-.9-.1-2.3-.5-3.4-.4v-.2c.5-.4 1.1.3 1.6.2.5 0 1-.1 1.6-.1v-.2h-.4c.2-.5-.3-.7-.8-.9.3-.7-.4-.2-.5-1 0-.4.1-.4-.2-.4V58c-.1-.3.1-.2.6 0-.1-.7-.7-2-1-.7h.4c-.1.2-.2.3-.1.7 0 .5-1.2.8.1.7-.4.4-1.2.2-1.8.2.4.4 1 .5 1.5.2v.4c.7-.3 1.1.1 1.5.6-1.2-.1-2.1.2-2.7-.9-.1 0-.7-.1-.7-.1-.8.1-1.2-.3-1.8-.4v-.2c1 0 1 .6 2.1.4-.7-.8-4.1-.6-4.4-1.8.9.3 2.5 1.3 3.4 1-.5-.4-1.3-.8-1.9-.8-.4 0-.7-.5-1.3-.4-.3 0-.7-.4-1-.5v-.2c.1 0 1.7.6 1.7.5 0 .3 1.2.4 1.5.3-.7-.6-1.4-.5-2.3-.9-.3-.1-1.8-.5-2-1.1.9.1 2 .7 2.7.9.6.2 1.5.8 2.3.5-.6-.5-.6-.2-1.3-.4-.7-.2-1.3-.7-2.1-.7-.1-.1-.6-.4-.8-.7-.6-.2-.5.4-1-.3-.2-.1-.4-.1-.6-.3l.2-.2c.4.2.9.7 1.5.6.6-.1 1 .9 1.9.6-.5-.8-1.8-.5-2.4-1.3-.5-.1-1.4-.2-1.8-.7 0-.1 0-.3-.1-.4.4.1 1.6.7 1.6.6 0 .3 1.3.6 1.7.5-.7-.8-1.6-.6-2.2-1.3-.4-.2-1.1-.3-1.5-.6-.1-.2-.2-.3-.4-.4l-.1-.1c.8 0 1 .7 1.6.6.5 0 .8.4 1.3.6v-.2c.2.1.3 0 .6.1-.8-.8-2-.7-2.6-1.6-.1-.1-.4.1-.6 0-.3-.5-.5-.2-1-.8-.1 0-.2-.1-.3-.1-.1-.2-.3-.4-.6-.5-.1.1-.1.3-.1.4-.2-.1-.3-.3-.2-.6.8.1.8.7 1.5.6.4 0 .8.8 1.6.6-.8-.8-.7-.7-1.6-1-.1 0-1.1-.6-.8-1 .2-.3 1.4.4 1.7.4-.2-.6-.7-.9-1.2-.8-.3 0-.8-.6-1-.8-.1-.1-.4.1-.6.1l-.1-.1c-.1-.3-.3-.6-.4-.9.5.1 1 .3.9.8.8-.4 1.2.7 1.9.2-.5-1-.7-.5-1.4-.8-.2-.4-.8-.6-1.4-.6-.1-.1-.5-.7-.7-.9h.1c.1-.2.1-.3 0-.4h.1c-.1-.4-.2-.9-.3-1.3.2-.1.1 0 .2-.2-.5.2-1.5-.5-1.9-.8.3-.9 1 .7 1.7 0-.2-.5-.5-.7-.7-1.2-.6.4-.8 0-1-.7l.2-.2c.3.2.8.6 1.2.6.1-.1.3-.5-.1-.6-.3-.1-.4-.2-.4-.3.1-.3.3-.6.6-.7.3.6.4.5 1.1.5-.2-1-1.3-1.2-1.9-2.1.1-.1.1 0 .2-.2.5.1 1.4 1.5 1.5.3 0-.8-1.5-.9-1.6-1.8 0 0-1.8-.7-.7-1 .3-.2.4 0 .5.3.4.7.5.3 1 .7.5.4.6.3 1.1.1-.3-.5-.7-1.2-1.3-1.2-.3 0-.5-.6-.6-.9.1-.1.1 0 .2-.2 1.4.2 1.6 1.5 2.9 1.6-.3-.8-.7-1.5-1.4-1 .5-1.4-1.8-1-1.5-2.3.6 0 .9.7 1.2.6.6-.1.4 0 .8.3.7 1.6 1.4-.4.5-.5-.7-.1-.7-.3-1.1-.7v-.4c-.3-.1-1-.3-1-.6s0-.4.1-.6c1.1.3 1.6 1.3 2.8 1.6.3-.5-.1-.2-.2-.5-.2-.3-.2-.7-.5-.9-.1-.1-.5.1-.6.1-.6-.3-.1-.9-.9-.9-.4 0-.6-.7-.6-1.1-.5.7-1.2-.6-.7-.7.5 0 .6.1.6.5 0 0 .8.2 1 .5.3.4.6.1.9.6.1.2.4.4.5.5.3-.2.2-.1.6-.1.1-.7-.4-.6-.5-1.1 0-.3-.2-.2-.4-.1-.3 0-.4-.5-.6-.7-.5-.6-1-.2-1-1 0-.5-.7.2-.8-.7-.1-1.1 1 .6.8.5.4.3.6-.2 1 .3.2.3.4.2.7.3.3.7.4.6 1.2.6-.2-.4-.3-.7-.5-1.1-1.2-.2-.4-.3-1.2-.8-.3-.2-.5 0-.7-.6.1-.3.2-.6.4-.7.2.3.4.7.8.6.7-.1.7 1.2 1.5.4-.3-.7-.4-.4-.6-.9-.1.1-.5.3-.5.4.2-.7-.1-.9-.7-1.2-.4-.2-.3-.9-.6-.9-1.6.1.5-1.8.2 0 1.1-.5.7.8 1.5.4.5-.8-.4-.9-.9-1.5 0-.1-.8-.8-.8-.7-.1-.8.6-.9.9-.1.6.1.6.6 1.2.4.9-.3-.5-1-.7-1.4.1-.1.1 0 .2-.2.3.1.6.1.7.5.2.6.6.5 1.2.6.5.1.7.2.8.6.5-.3 1.6-.4.4-.7-.5-.1-.9-.6-1.1-.9-1 .6-.3-.9-1-.8-.3 0-.4 0-.6-.1-.4-.3.3-.6-.5-.5-.2 0-.3-.3-.4-.5.4-.4.9-.3.8.5.2-.1.9-.3.9.1.1.8 1.1.2 1 1.1.2 0 .5-.2.7-.3.1-.1 0-.7-.2-.7s-.7-.2-.8-.6c-.2-.6-1.4-.4-.8-1.3.9.1.5.7 1.4.6-.2 0 1 .9 1 .4 0-.4.6-.4-.4-.6-.3-.2-.4-.7-.5-1.1-.1-.1-.6.2-.7.1-.1-.1.1-.6-.1-.7-.1-.1-.7.2-.7.1-.4-.6.3-.7.7-.6.1 0 0 .5.1.6.3 0 .9-.1 1 .3 0 .2.9.3 1 .8 1-.3.7-.3.5-1.2-.1-.1-.5.1-.6 0-.1-.2-.2-.5-.2-.7-.5.2-.8.1-.8-.3s0-.4-.4-.4c-.8.1.2-1.2.6-.2-.2.1-.2 0-.2.2 1.2-.3.6.5 1.4.4.2 0 .4.4.8.4 1 .1.1.6 1.1.9.1 0 .2-.1.4-.2-.2-.4-.6-.7-1-.8-.1-.1.1-.6-.1-.7-.5 0-.7 0-1-.5.2-.2.1-.1.2-.4-.1.1-.1 0-.2.2-.7-.2-.7-.1-.6-.7-.7.3-1.2-.1-.2-.5.1.3 1.1 1 1.4 1 .6 0 .5.7.8.7.2 0 .5-.2.6.1.1.6.4.4 1 .5.3-1.3-2-1.2-1.7-2.5-.3.1-.6 0-.9.1.1-.3.5-1 .8-.4.3.6.4 0 .9.2.2.5.5.6 1 .7v.4c0 .3.7.2 1 .2-.1-.4-.3-.6-.1-.9-.7.2-.5-.2-1-.5v-.4c-.1-.1-.5.1-.6 0-.3-.3-.1-1-1-.7 0-.2.1-.4.1-.6-.3.1-.6 0-.9.1v-.2l.2-.2c.4 0 .7.2 1.1.3 1 .3 0 .2.5.5.1.1.4-.1.6 0 .4.9.3.2.9.6.7.5-.3.5 1.1.7.3.9.1.7.8.7 1-.1-.6-.7-.4-.5-.3-.4-.1-1.1-.9-1h-.1c0-.7-.3-1-1-.8-.1-.1 0-.5-.1-.6-.2-.1-.6-.1-.8-.1.1-.5.9-.5.9-.1 0 .3.2.2.4.1.4 0 .2.5.9.5.5 0 .1.7.6.7s.5-.1.6.4c0 .3.6.3 1 .2-.1-.2-.2-.4-.2-.5h-.4c-.3 0-.2-.5-.4-.7-.5-.7-1.9-.7-1.5-1.5-.5.2-.9.2-1-.3.5 0 .7.2 1 .3.1 0 .2.1.3.1.2 0 .3-.1.4.1.3.5.5.3 1 .6.3.2.8.2.9.5 0 .1 0 .4.1.4 0 0 .6.4.8.1.6-.9-3.5-2.6-3.4-2.9.8-.5.6.3 1.1.3.2 0 1.5.3 1.5.7l.7.2c.3 0 0 .4.1.5.4 0 .6.2 1 .3-.1-.4-.4-.8-.8-.9.1-.7-.7-.8-1.1-1.4 0 0-1.1-.3-1-.3-.3 0-.1-.1-.4-.2v-.2c.2 0 .5-.1.7-.1-.1-.3-.3-.6-.4-.7.4-.2.8-.2.8.3.2-.5 2.1.1 2.1.4 0 .6.7 0 .8.7 0 .4.6.1.6.7 0 .1.7.6.8.3.1-.4-.1-.3-.3-.4-.4-.4-.4.5-.2-.8-.1 0-.5.1-.6.1-.4-1.2-.4-.3-.7-.9-.3-.6-.6-.1-1-.7.1.2-.6.3-.7.3 0-1.1 2.6.5 2.9.5.3 0 .3.4.6.5.7.3.1.6.4.9.1.1.7.1.8.1.1-.6-.1-.6-.6-.7.1.1-.5-1.3-.5-.9-.1-.7-1.5-.5-1.6-1.3.3 0 1.5.4 1.5.6 0 0 1 .7 1.2.7.4.1.6 1.2 1.2.3-1.4-.3 0-.1-.6-.7-.1-.1-.5-.1-.6-.3-.3-.4-1-.8-1.5-.8v-.2l.2-.2c.5.1.8.4 1.3.4.3.1-.3.4.2.3.9-.1.2.5 1 .5.1 0 .4.2.4.3 0 .4.4.5.6.5h.2c.1-.8-.6-.4-.7-1.1 0 0-.7-.3-.8-.5-.3-.3-.9-.6-1.3-.6V4c1 .1 2.2.6 3 1.1-.2.7-.2.7-.2.9 0 .5.7 0 .8.5 0 .6.2.7.8.5-.4-.4-.6-.2-.6-.9 0-.4-.6.1-.6-.2-.1-.7-1.5-1.1-2-1.2v-.2c.8.1 1.4.5 2.1.8.7.2.7.9 1.5.6-.4-.3-.7-.8-1.4-.8v-.2c.3 0 1.5.1 1.6.4 0 .1.2.3.3.3.7-.1.3.8 1.2.6-.4-.2-.5-.8-.8-1-.3-.2-.6.1-.8-.5.4.1.7.3 1.1.3.3.2-.3.4.4.3.3 0 .5.7 1.1.6-.4-.1-.5-.8-.6-.9-.1 0-.6 0-.7-.1v-.2c.8.1.8.5 1.4.4.3 0 .5.7 1.1.6-.2-.2-.7-.2-.6-.7.4.1.7.2 1.1.1-.3-.4-.9-.8-1.5-.6v.2h.2v.2c-.4-.1-.9-.3-1.2-.6-.3.1-1.6.5-1.7-.1 0-.1-4.2 0-4.4 0-1.2.1-2.5.4-3.5.6-.3.1-2.4.3-2.4.5s-4 1.1-4 1.5c0 .2-2.3 1-2.3 1.1 0 .3-3 1.8-3.2 2.2-4 2.5-8 7.9-9.3 12.2-.2.5-.5 1-.8 1.9-.5 1.7-1.5 4.2-1.3 6.3.2 1.8-.3 3.6-.1 5.4.2 2.3.6 4.6 1.5 6.7.2.5.6 1.7.7 2 0 .5.2.3.3.8 0 .3.5 1 .7 1.2.3.5.6 1.1.9 1.6.5 1 1.4 2.1 1.8 3.2.4.5 1.2 1.5 1.8 1.9.4.4.6 1 1.2 1.4.7.5.9 1 1.5 1.5.4.3 0-.3.9.5.3.3.9 1 1.3 1 .3 0 1.4.9 1.6 1.2.4.2.9.5 1.2.6.3.2 1.1.6 1.4.6.5 0 1.1.5 1.4.6.4.1 1.7.8 2.1.7.6-.1 1.4.5 2 .6.7.1 1 .1 1.7.2 1 .2 2.5.6 3.6.6s2.3-.1 3.4-.1c.9 0 1.8-.1 2.7-.2.4-.1 1.1-.4 1.3-.4 2-.2 3.7-.7 5.3-1.4.6-.3 2.1-1.1 2.7-1.4 1.4-.4 2-1.2 3.2-1.8v-.2c-.8.4-1.2.5-1.4.9zM377 4.8c.7.1.2.6 0 0zm-.5.4c-.1.4.5 0-.5.4v-.4h.5zm-1.8.7c-.4-.1-.2 0-.4-.2.4.1.2 0 .4.2zm-6 3.9v-.2c.2-.1.5-.2.7-.3.1.5-.2.6-.7.5zm3.9-2.8v.2c-.4.1-.6.1-.8-.1.3 0 .5-.1.8-.1zm-.9.7v.2c-.4.2-.8.2-.8-.3.4-.1.6-.1.8.1zm-1.6.7c.4.1.6 0 .6.3-.3.1-.7.1-.9.1 0-.3.1-.2.3-.4zm-.2 0c-.4.1-.6.1-.8-.1.4-.2.6-.4.8.1zm-1.1.6c0 .5-.8.3-.7.3.2-.2.4-.2.7-.3zm-1.5 1.1c.3.1.2 0 .4.2-.2.2-.7.1-.6.1.1-.2.2-.1.2-.3zm-.3 1.5c.1 0 .2-.2.6.1-.4.2-1.1 0-1-.1h.4zm-.4-.5c0 .5-.3.5-.5.2.2 0 .3-.1.5-.2zm-12.1 25.1V36c.5-.2.3.1.4.3-.2 0-.1 0-.4-.1zm12.3 20.1c-.4-.2-.9-.3-1.2-.6.6.1.9.2 1.2.6zm-.9-1.4c-.1.6-1-.1-1.2-.5.5.2.7.5 1.2.5zm-1.2-1.3c.1 0 .1.1.2.1.1.1.3 0 .2.4-.2-.1-.4-.1-.5-.2 0-.2.1-.2.1-.3zm-.5.5c.1.1.1.1.1 0 .1 0 .2.1.1.4l-.6-.3c-.1 0-.2.1-.2-.2.2.1.4.1.6.1zm-1.1-3.4c.2.3.4.3.5.5-.2-.1-.4-.1-.7-.1-.1-.1-.3-.2-.4-.4h.6zm-.7.8c0 .1-.1.1-.1.2h.3c.1.1.2.2.4.2-.2.5-.8-.2-1-.5.2 0 .3 0 .4.1zm.2-2.8c-.2 0-.4-.1-.6-.2 0-.2 0-.4-.1-.6.3.2.7.4.7.8zm-1.7-2.4zm-.7.8c.2 0 .4.1.6.2v.5c-.4-.2-.6-.4-.6-.7zm.1 1.3c-.2 0-.4-.1-.6-.1v-.4c.4 0 .6 0 .6.5zm.4-2.3v.3c-.3-.1-.6-.3-.8-.5.3.1.5.2.8.2zm-.8-.2c-.1-.1-.1-.1-.2-.3h.3c-.1.1-.1.2-.1.3zm.1-1.2c-.3 0-.5 0-.6-.3l.6.3zm-.5.8c-.5.1-.8-.2-.8-.7.2 0 .4.1.6.1 0 .2.1.4.2.6zm-.6-2.4c.1.2 0 .5.1.7-.7-.1-1-.9-.1-.7zm-.4-4.4c.4-.2.6 0 .7.2-.3-.1-.5-.1-.7-.2zm.8-1.4c-.2.9-.4.4-.9.1.2-.7.4-.3.9-.1zm-.9 4.7h-.2c-.1-.2-.3-.4-.4-.7.4.1.7.2.6.7zm.2-18.3c.1-.2 0-.2-.1-.2.1 0 .2-.1.6-.2-.1.3 0 .2-.2.4-.1.2 0 .1-.2.2.1 0 0-.1-.1-.2zm-.2 3.8c1.5-.6-.3 1.5 0 0zm-.1-4.8c.1-.2 0-.1.2-.2v.4c-.4-.2-.2-.1-.2-.2zm.1 2.4c.1-.2.9-.1-.1.4 0-.3-.1-.2.1-.4zm0 4.1c.2.1.2.2.4.5-.3.1-.5.1-.6-.1.1-.1.2-.3.2-.4zm-.1 1.6c.1.2.2.4.2.5-.5.4-.7.1-.8-.5.3.1.5 0 .6 0zm-.8-4c.1 0 .3-.1.7-.3 0 .2.1.4 0 .6-.2 0-.4-.1-.6-.1.1-.2 0-.2-.1-.2zm.3 2c-.9 0 0-1.1 0 0zm.5 7.6c-.1.2 0 .1-.2.2-.4.5-.5-.1-.6-.5.3.1.6.2.8.3zm0-1.5c-1.5.7-.2-1.4 0 0zm0 3.6c-.2 0-.4.1-.6 0-.1-.2-.2-.3-.2-.5.5-.2.6 0 .8.5zm0 1.7c-.2.1.1.2-.2.2-.1-.2-.3-.5-.4-.7.5-.3.8.1.6.5zm-.5-6.9c-.2-.1-.3-.8.1-.8.1.2.3.4.4.7-.1.1-.3.1-.5.1zm1.4.8c-.3.4-.6 0-.8-.5.9-.4 1.1.5.8.5zm-.3-1.6c-.1-.2-.2-.5-.3-.7l.2-.2c.9.2 1 .7.1.9zm.9-2.3c0 .2-.1.4-.1.6-.3 0-.6-.2-.8-.3.2-.9.2-.6.9-.3zm-.4-4.1c-.6.8-.9-.9.2-.2-.1.2 0 0-.2.2zm-.1-1.7c0-.4.3-.4.7-.4 0 .2.1.4 0 .6-.4 0-.6 0-.7-.2zm1.5.8h.1c-.1.1-.1.2-.2.2-.2-.1-.3.1-.5-.2 0 0-.6-.5 0-.6 1 0 .1.3.6.6zm-.2-5.9v-.4c.2 0 .4 0 .6-.1-.1.5.5 0-.6.5zm2 1.3c-.1.1-.4.2-.5.2-.1-.1 0-.1-.2-.2 0-.9.9-.8.7 0zm1.4-3.3c-.1.1-.4.2-.5.2-.4-.5-.1-.7.5-.8v.6zm1.1-4.6c0-.3.3-.4.7-.4v.4h-.7zm.8-1.5c-.4-.1-.2 0-.4-.1.4 0 .1-.1.4.1zm-1.3.8h.4c-.1.2.1.2.2.1-.1 0-.3.1-.7.3 0-.1.1-.2.1-.4zm.2 1.5c0 .4-.1.5-.5.4-.1-.3.1-.2.5-.4zm-1-.3h.4c-.1.2 0 .2.2.1-.1 0-.3.1-.7.3 0-.1.1-.3.1-.4zm.2 1.7c-.1.9-1.1 0 0 0zm-.6-.5c-.2.4-.3.6-.5.2.1-.1.3-.2.5-.2zm-.2 1.9c.2.5 0 .7-.5.6 0-.5 0-.5.5-.6zm-.8-2.2c.4 0 .1.2-.2.4.1-.2.2-.3.2-.4zm.2 1.8c-.1.4.5 0-.5.4v-.4c.1.1.3.1.5 0zm0 1.9c-.1.3 0 .2-.2.4-.1.2-.1.3-.5.2.1-.4.1-.7.7-.6zm-1.3 2.2c-.6-1.5 1.5.3 0 0zm.5-4.4c-.4-.1-.2 0-.4-.2.4.2.2 0 .4.2zm0 1.7c-.1.9-1.1 0 0 0zm-1.2-.1c-.1-.5.1-.3.5-.4 0 .4.6 0-.5.4zm.1-1.8c-.4-.1-.2 0-.4-.2.4.1.1 0 .4.2zm-.5 3c.1-.1-.1-.2.2-.2v.4c-.5-.1-.2-.1-.2-.2zm0 2.2c.1-.4.2-.1.4.3-.2 0-.4.1-.6.1.1-.3.1-.2.2-.4zm.4 2.2c-.2.1-.5 0-.7.1.1-.6.9-1 .7-.1zm-1.4-1c.2-.1.5-.2.7-.3-.1.7-.3.8-.7.3zm.1-2.6c.4-.1.2.2.1.7.3.1.2 0 .4.2-.6.5-.4.4-.7.8-.3-.7-.1-1 .2-1.7zm-.7 2.5c0 .5-.3.5-.5.2.2 0 .4-.1.5-.2zm-1 2.5c.6.1.2.7 0 0zm-.1 1.9l-.4.2v-.4c.3.1.2 0 .4.2zm-.2 3.8c0 .1.1.2.3.6-.4-.1-.4-.1-.6-.3.1-.1.3.1.2-.2.1.1.1 0 .1-.1zm-.6 5.4c.3 0 .2 0 .4.1.4.1.1.2-.2.4 0-.1.1-.1.1-.3-.2 0-.3-.1-.3-.2zm.3 1.8V37s0-.1.1-.1c.1.2.2.4.2.5-.1 0-.4.1-.5 0 0 0 0-.2.2-.3zm0-3c-.1-.2-.2-.4-.2-.5.2 0 .4.1.6.1l-.4.4zm-.2-2.2c.1 0 0 .1 0 .1v-.1zm.2.3c0-.1.1-.2.1-.3h.3v.4c-.2-.1-.3-.1-.4-.1zm-.3-4.7c.7.1.3.6 0 0zm.2-2.7v.4c-.5-.1-.2-.1-.2-.2.1-.1-.1-.2.2-.2zm0-1.3c-.4-.1-.2 0-.4-.2.4.2.2 0 .4.2zm-.4 5.8c.1-.1-.1-.2.2-.2v.4c-.4-.1-.2-.1-.2-.2zm0-2.6c-.4-.1-.2 0-.4-.2.4.2.2 0 .4.2zm-1.1 8.7h-.2V35c0 .1.3 0 .2.4zm0 1.7h-.2v-.4c0 .1.2 0 .2.4zm.3 2.6c-.1 0-.2 0-.3-.1.1 0 .2-.3.2-.3h.2c-.1.2-.1.3-.1.4zm.2-5.2c0-.1 0-.1 0 0zm.3-1.4c-.3-.2-.2-.3-.1-.6.1.1.2.7.1.6zm-.1-2.2c.7.1.2.6 0 0zm.5 13.5h.2v.4c0-.1-.3 0-.2-.4zm.2-5.7s0-.1 0 0c.1 0 .3 0 .4.1 0 .2 0 .4.1.6-.4-.1-.4-.4-.5-.7zm.3 1.8h.2c.1.2 0 .4 0 .6-.1 0-.2-.1-.3-.2.1-.2.1-.3.1-.4zm.2 1.6h.2c-.1.3-.1.5-.2.5 0-.1.1-.3 0-.5zm.6 4.2h-.2c0-.2-.1-.2-.2-.4.3.2.5 0 .4.4zm-.2-2.5l.6.3c-.3.4-.4.2-.6-.3zm.3 3.7c.4.1.2 0 .4.2l-.4-.2zm0-2.1c.4.1.6.1.6.5-.4.1-.3-.1-.6-.5zm.7 1.8c-.1-.1-.2-.2-.2-.4.5.1.7 0 .6.5-.1 0-.3 0-.4-.1zm1.1-.7v.4c-.3-.2-.5-.3-.6-.7l.6.3zm-.4 2.3c-.1-.2-.2-.4-.2-.5.4.1.5.3.2.5zm-.1 1.3s.5.1.4.3c0 .1 0 .1-.4-.3zm.4-.4c.1 0 .7.3.6.5-.4.1-.3-.1-.6-.5zm.3 1.7s.1.1.3.1v.1h.2v.1c-.1 0-.1 0-.5-.3zm.2-2.1c.4.1.7.2.8.5-.4-.1-.6-.2-.8-.5zm.7 1.2l.6.3c-.2.5-.4.2-.6-.3zm.5-.4c.5-.1.6.1 1 .3-.2.4-.8 0-1-.3zm.4 2.1V52c.3.1.4.2.6.4-.3 0-.4-.1-.6-.2zm.7 1.2h.2s.1 0 .1.1.1.2.1.3c-.2-.1-.2-.2-.4-.4zm.2-.8c.4.2.8.3 1 .7-.4-.1-.7-.3-1-.7zm.7 2c0-.1 0-.1 0 0 .2 0 .3 0 .5.2-.4-.1-.4-.1-.5-.2zm.7.9c.1 0 .5.1.4.3l-.4-.3zm.4-.4c.4.1.7.2.8.5-.5-.1-.6-.2-.8-.5zm.8 1c.1 0 .5.1.4.3 0 0-.1.1-.4-.3zm1.3.6c.4.1.6.2.8.5-.3-.1-.5-.2-.8-.5zm1 2c.4.1.6 0 .6.3-.5-.1-.4 0-.6-.3zm.5-.8c.4.1.2 0 .4.2-.4-.1-.2 0-.4-.2zm.9.3c.4.1.8.1 1 .5-.4-.1-.7-.2-1-.5zm1.2 1.2c-.2.1-.2.2-.6 0 .2-.4.4-.4.7-.3 0 .3.1.1-.1.3zm.4-.1c.5.1 1 .4 1.2.8-.7 0-1.2 0-1.2-.8zm1.6.8c.4.1.5.1.8.3-.5 0-.6 0-.8-.3zm4.7 1.3c.4.1.2 0 .4.2-.4-.2-.1 0-.4-.2zm10-54.9v.2l.4.2c-.2-.4 0-.6-.4-.4zm-18.6 17.1h.2c0-.5 0-.8-.5-1.1.1.4.2.8.3 1.1zm-1.9 5.8c1.7.3-.2-1.2 0 0zm3.5 29.8c.2.2.1.1.4.2v-.2h-.4zM366.6 23c1.7.4-.2-1.2 0 0zm.4 4.5c.1.2.2.3.6.1-.2-.4-.3-.7-.8-.5.1.3 0 .2.2.4zm-.8 3.8c.2 0 .5 0 .7-.1-.3-.7-.3-.6-1-.3.2.1.2.2.3.4zm3.5 18.1c.1.9.1.7 1 .8-.1-.5-.8-1.5-1.2-1-.1.2.2.2.2.2zm1.1 2.3c.2-.1.1 0 .2-.2-.2-.1-.5-.1-.8-.1.2.4.3.6.6.3zm-.8-3.3c-.1-.6-.4-1.1-1-.8.2.5.5.7 1 .8zm-2.9-.8c.2.2.3.3.4.5.2-.2.5-.2.7-.3-.1-.4-.6-.5-.3-.7-.1-.3-.6-.8-.8-1-.2.6 1.1 1.1 0 1.5zm1.6 3.5c.2 0 .4 0 .6-.1-.4-.4-.6-.9-1.2-.6.4.8.3.4.6.7zm3 2c-.1-.3-.4-.3-.8-.3.3.3.3.3.8.3zm2.9.7c-.2.5-.2.5-.7.8.3.2.8.5.5.9 0 .4.1.7.1 1.1h.2c-.3-1.1.8-2.2-.1-2.8zm-9.5-26.2c-.4.6.2.9.8.7 0-.5-.3-.7-.8-.7zm.5 18s.4-.3.7-.2c-.2-.5-.4-.6-.6-.7-.9.1-.9.7-.1.9zm-.9-1.9c.2.1.7.2 1 .5.2-.2-.2-.7-.1-1.3-.3.2-.4.7-.9.8zm6.3 3.7c.3.3.3.5.8.3 0-.5-.3-.5-.8-.3zm-4-3.6c.4-.6-.1-1.1-.8-.9.2.5.3.8.8.9zm6.6 3.4v-.4c-.2 0-.4 0-.6.1.2.2.3.2.6.3zm.2-14h-.4c.4.2.3 0 .4 0zm10.3 2.4c0 .2.3.2.4.3.2-.1.3-.3.3-.6-.3 0-.5.1-.7.3zm1.1 3.4h-.2c0 .2 0 .5.1.7.2-.1.2-.3.1-.7zm-.1-.5c-.1-.3 0-.2-.2-.3v.4c.1-.1.1-.1.2-.1zm.2 2.2c-.1-.3 0-.2-.2-.4v.4h.2zm-1.2-31.4c.2.2.1.1.4.2-.1-.1 0-.3-.4-.2zm-.4 26.1c.2.2.1.1.4.2v-.2h-.4zm1-28.2v.2l.4.2c-.1-.3.1-.5-.4-.4zm.8 36.1c.4-.2.2-1.9-.2-2.2l.2 2.2zm.9-35.3c.2.2.1.1.4.2-.1-.1 0-.3-.4-.2zm.4 40.6c-.1-.2-.2-.4-.2-.5-.7.1-.5.7.2.5zm-.6-2h-.2c0 .4.1.9.1 1.3.4-.2.2-.9.1-1.3zM384 7.9c-.2 0-.4-.1-.6-.1.3.2.3.2.6.2v-.1zm2.2 38.5c0-.4-.1-.7-.1-1.1-.3.2-.1.7-.1 1.1h.2zm-.6-39.6c.2.3.1.2.6.3 0-.3-.2-.2-.6-.3zm.1 37.8h.2c-.1-.3 0-.2-.2-.4-.1.1-.1.2 0 .4zM383.8 6c-.1.7.6.7.8.3-.3-.1-.5-.3-.8-.3zm-2.2 53.6v-.2c-.2 0-.5 0-.7.1.2.2.4.3.6.3 0-.1-.1-.2.1-.2zm1 .7v-.2c-.2 0-.5 0-.7.1.2.2.4.3.6.3 0-.1-.2-.2.1-.2zm-2.3-50.1c.4.1.4-.1.5-.2h-.6c.1.1.1.2.1.2zm3.7 51.1c.3 0 .5 0 .7-.1V61c-.4 0-.6.1-.7.3zm-.4-.5v-.2c-.2 0-.5 0-.7.1.2.2.4.3.6.3 0-.1-.2-.3.1-.2zm-15.2-11.3c.1-.1.3 0 .2-.2-.2-.2-.7-.5-1.1-.3.1.3.5.8.9.5zm12.8-41.6c-.3 0-.5-.1-.8-.1.3.6.5.7.8.1zm-.3 26.9h-.4c.2.2.1.1.4.2v-.2zm.4-25.6v.2l.4.2c-.1-.3.1-.5-.4-.4zm.4-1.9c-.2.1-.1 0-.2.2 1.7.3.3-.5.2-.2zm.5 27.9v.2c.4.1.4-.1.5-.2h-.5zm.7-26.7c-.2 0-.4-.1-.6-.1.3.2.5.4.6.1zM380.6 59c-.1-.3 0-.5-.6-.3.3.2.3.2.6.3zm.8-24.1h-.6v.2c.5.1.5-.1.6-.2z"/><path class="st2" d="M159 258s-1.7-6.3-3.2-6c-1.6.3 2.6 6.6 2.6 6.6s-5.6-4.3-3.8-6.9c1.9-2.6 4.8 4.3 4.4 6.3z"/><path class="st2" d="M158 257.5s-4.4-5-5.3-3.4c-.9 1.6 2.1 4.2 3.9 4.6 0 0-3.9-2.5-3.2-4 .8-1.4 2.1 2.5 4.6 2.8z"/></g><g id="Red_Bull_Type"><path class="st0" d="M145 70.4h23.8v42.4h-30.1c-2.1.8-4.4 1.2-6 1.2-3.9 0-10.6-1.3-12.5-7.7-1.4 3.4-7.3 6.5-10.1 6.4H90.8V72.5h15.6c6.3 0 12.4 3.2 12.4 11.4 0 .6-.1 1.4-.3 2.3H145V70.4m-70.9-.2h12v42.6h-14c-.7.2-1.4.3-2.3.3-4.9 0-9.3-2-11.6-7.7-3.2 6-8.1 8.3-13.6 8.3-1.9 0-3.6-.3-4.9-.8H5.3V72.2H22c6.5 0 12.6 5 12.6 13.1 0 3.5-1.6 6.3-1.6 6.3 2.3-4.6 7.1-6.7 11.8-6.7 4.8 0 9.9 1.5 12.9 9 2.2-5.7 5.4-8.8 12.5-8.8 1.6 0 2.4.2 4 .7V70.2"/><path class="st3" d="M44.5 87.4c-6.4 0-11.6 5.3-11.6 11.9 0 6.6 5.2 11.9 11.6 11.9 4.9 0 8.7-2.2 10.7-5.8l-5.7-2.7c-.7 1.6-2.4 2.7-4.4 2.7-2.6 0-4.8-2-4.8-4.4 0-.2-.1-.1 0-.2h15.5c0-.5.1-1 .1-1.5 0-7.7-5-11.9-11.4-11.9zm-4.2 9.3c0-2.4 1.9-4.3 4.3-4.3s4.3 1.9 4.3 4.3h-8.6zm36.4-6.4c-1.9-1.9-4.3-3-7-3-5.8 0-10.5 5.2-10.5 11.6 0 6.4 4.7 11.6 10.5 11.6 2.7 0 5.2-1.2 7.1-3.1v2.9h7V72.7h-7v17.6zm-5.1 14.6c-2.8 0-5.1-2.6-5.1-5.7 0-3.2 2.3-5.7 5.1-5.7s5.1 2.6 5.1 5.7c.1 3.2-2.2 5.7-5.1 5.7zM31.7 85.3c0-5.8-4.7-10.5-10.6-10.5H7.7v35.6h7.5V80.9h4.4c2.8 0 4.8 2.1 4.8 4.7s-2.2 4.7-5 4.7h-1.7v8.5l7.4 11.7H34l-10.3-15c4.6-1.1 8-5.3 8-10.2zM159.5 73v37.5h7V73h-7zm-11.9 37.4h7V73h-7v37.4zm-10.7-9c0 2.1-1.8 3.9-4 3.9s-4-1.7-4-3.9V88.6h-7v14.2c0 4.8 4.9 8.7 10.9 8.7s10.9-3.9 10.9-8.7V88.6h-6.9v12.8zM113.3 91c1.9-1.8 3.1-4.3 3.1-6.9 0-2.4-.9-4.6-2.5-6.4-1.7-1.9-4.6-2.7-8.6-2.7h-12v35.5h15.5c5.9-.1 10.7-4.7 10.7-10.2-.1-4.2-1.5-7.1-6.2-9.3zm-5.9 13.2h-6.7V81.1h4.7c2.1 0 3.7 1.7 3.7 3.8 0 2.1-1.7 3.8-3.7 3.8H103V95h4.5c2.5 0 4.4 2 4.4 4.6-.2 2.6-1.8 4.4-4.5 4.6z"/></g><g id="Street_Style_Type"><path class="st1" d="M48.9 119.6c5.1-1.1 10.8-.6 16.5-.6 5.7 0 11.5.3 16.8.6v-6.9c3.9.1 8.6-.5 11 1.1 1.8-.2 3.7-.9 5.8-1.1 3-.2 6.6 0 10 0 1.7 0 3.3-.1 5 0 1.6.1 3.4-.1 4.7.2.4.1 1 .3 1.6.6.5.2.9.7 1.4.8.9.2 2.1.2 3.1.3 2.5.3 4.8.8 6.9 1.7 1.1.5 2 1.2 2.8 2.2.6.6 1.1 1.3 1.6 1.9 7.5-1.9 17.3-1.5 26.7-1.9 4.4-.2 9.1-.6 13.5-.8 4.4-.2 8.6 0 11.6 2.4 7.2-1.6 16.5-1.3 25.3-1.7 4.2-.2 8.7-.6 12.7-.8 4.2-.2 8 .6 10.8 2.7 4.5-1.9 12.1-.7 18.5-.7 2.7 0 5.5 0 8 .2 2.7.1 5.4-.4 7.5 0 1.9.3 3.5 1.2 4.9 2.4 1.4 1.2 2.5 2.6 3.1 3.9.1.3.2.8.3 1.3.3.8.8 2.2.9 3.5.3 3.2-.5 5.9-.6 8.8-.1 1.8.1 3.5 0 5.7-1.7.3-3.1 1-4.7 1.4-.7.2-.5 1.4-1.3 1.6-1.5 0-3.1.4-4.6.3-1.5-.1-2.7-.8-3.8-1.3.2 3 .7 5.7.8 8.8.7.9 2 1.3 3 1.9.1.1.2.3.3.3.7.4 1.8 1 2.7 1.6.5.3.9.7 1.4 1.1.4.3.7.5 1.1.8.8.6 2 1.6 2.8 2.4-.3 1.3-.8 2.5-1.3 3.6.5.4 1.2.4 1.7.6.7.2 1.3.5 2 .9l.3.3c.2.1.6.1.8.3.4.3.8.7 1.1 1.1 1.5 1.5 2.7 3.6 3 6.3.1 1.3 0 2.7-.2 4.1-.3 3.6-.8 7.5-1 11.3-2.5 1.2-4.6 2.7-7.4 3.4 2 .5 3.9 1.2 5.5 2.2.8.5 2.1 1.5 2.8 2.4.1.1 0 .3.2.5.1.1.3.1.3.2.1.2.2.6.3.8.7 1.2 1.5 2.9 1.3 5.3 0 .4-.2.8-.3 1.3-.1.4-.3.8-.3 1.3 0 .9.5 1.7.8 2.5.7 2.3 1 5.1-.3 7.4-.4.7-1.2 1.4-1.9 2-.2.2-.3.5-.5.6-.5.4-1.1.7-1.7 1.1-1.7 1-3.8 1.8-6 1.9-1.4 0-2.9-.2-4.6-.2-4.3 0-9.4.3-13.8 0-.8-.1-1.6-.3-2.4-.3-.7 0-1.3.3-2 .3-2.1.2-4.4.1-6.6.1-3 0-6-.3-8.9-.3-.5 0-.5.7-.6.9 0 .1-.3.1-.3.2-.9 1.9-2.4 3.9-3.6 5.8-3.9 0-7.9-.8-12.1-.8-12.3 0-25.8-.6-38 .3v-8.3c-1.1 0-2.4.1-3.6.2-9.2.4-20-.1-29.5 0-.6.1-.2-.9-.3-1.3-.4.7-.6 1.5-.9 2.4-.9 2.4-2.2 4.4-4.4 5.6-2.7 1.6-6.3 1.7-10.8 1.7-3.5.1-7.4.2-11.1.3-2.4.1-4.8.4-6.9 0-.4-.1-.9-.3-1.4-.5-1.2-.3-2.2-.7-3.3-1.3-.5-.3-1.1-.6-1.7-.9-.9-.6-2.2-1.5-3-2.4v-4.9c-.5-.2-.9.5-1.4.8-.2.1-.3.1-.5.2-3.4 2-8.7 3.6-14 2.7-.4-.1-.8-.2-1.3-.3-1.3-.2-2.6-.6-3.9-.8-.9-.1-2-.3-2.8-.2-.6.1-1.1.5-1.7.9-.5.4-.9.9-1.6 1.1-.9.2-2.4 0-3.6 0H65.1c.1-6.7-.1-14.3 0-21.2 0-1.1.1-2.1.3-3.1.3-1.8.8-3.1 1.6-4.4.1-.1.1-.3.2-.5.3-.4 1.3-1.1 1.3-1.3 0 0-.8-1.1-1.1-1.4 0 0-.3-.1-.3-.2-.6-1.4-1.5-2.3-2.2-3.9-1.5-3.7-1.7-8.6.2-12.7-3.2-.5-6.1.3-8.8-.2-4.2-.7-7.1-2.8-9.7-4.9v-2.7c-.4-.2-.7.4-1.1.6-.1.1-.3.1-.5.2-.2.2-.4.5-.6.6-.2.1-.3.1-.5.2-.3.2-.7.5-1.3.8-2.8 1.4-6.8 3-11.1 2.8-1.9-.1-4-.6-6-.9-1-.2-2-.3-3-.5-1.1-.2-2.1-.5-3-.3-1.3.2-2.2 1.8-3.3 2.2H1.4c.3-7.3-.4-16.1 0-23.2.1-1.6.5-3.3.9-4.7.5-1.3.6-1.8 1.6-3 .2-.2 1.2-1.1 1.3-1.3 0-.1-1.7-2.1-1.9-2.4-2.1-2.8-3.7-6.4-3.4-11.3.4-6.1 3.4-10.1 7.7-12.9 2-1.3 4.5-2.4 7.2-3 2.8-.6 6.1-1 9.4-.8 2.4.2 4.8.9 7.4 1.4 1.6.3 3.6-.6 5-1.2.6-.3 1.3-.6 1.9-.9.3-.2.5-.5.8-.6.4-.2 1-.3 1.4-.6.1 0 .2.2.3.2.9.9 1.7 2 2.7 2.8.5.4 1.2.7 1.7 1.1.5.4 1 .8 1.4 1.3.2.2.3.5.5.8.2.2.5.4.6.6.5.3.4 1 1 1.4zm83.4 25.7c-.2.5-.9.6-.9 1.3.5 1 1 1.8 1.1 3.1.8.4 1.6.8 2.4 1.3.8.5 1.7.8 2.4 1.4-.2 1-.8 1.6-.9 2.7 1.3.5 2.6 1 3.9 1.4-.4-1.3 1.1-1.5 1.4-2.5-.3-.6-.5-1.4-.5-2.2 0-.9.4-1.8.5-2.7 0-.5-.1-1-.2-1.6-.1-2.2.1-4.6-.2-6.6-.1-1.3-.5-2.1-.9-3-.4-.8-.8-1.6-1.3-1.9-1.6 3.8-4.2 6.5-6.8 9.3zm59.2 2.4c.2-1.5-.2-3.2-.5-4.4 0-.1-.1-.2-.3-.2-2.1 1.4-4.5 2.4-6.9 3.4 2.9.6 5.1 1.8 7.1 3.3 0-.6.5-1.3.6-2.1zM86 160.8c.3-.5.9-1 1.1-1.6.1-.3.2-.9.3-1.4.7-3.3.8-7.6 0-10.5 0-.1 0-.2-.2-.2-1.2 0-1 1.4-1.9 1.7-1.7.2-3.5.5-5.2.3-1.6-.2-2.7-1.2-3.8-1.6.4 3.4.7 7.1 1.1 10.5 2.7 1.4 5.3 3 7.7 4.7.4-.6.5-1.2.9-1.9zm154.8-10.6c1.3 1.6 1.9 4.4 1.3 7.1.9-.1 1.6-.5 2.5-.6.1-1.3-.1-2.9 0-4.2 0-.5.2-.8.2-1.3s-.1-1.3-.6-1.4c-1 .4-2.5.1-3.4.4zm-185.4 3c-.1-1.2.1-2 .3-2.8 0-.1-.1-.2-.3-.2-.5.5-1.7.2-2.2.8.9 2 1.4 4.9.9 7.7 1.1 0 1.7-.5 2.7-.6-.3-1.6-1.3-3-1.4-4.9zm-30.3 1.7c1.9.4 3.9-.2 5.8-.2 0-1.1-1.5-.8-2.5-.9-1.1-.1-2.5-.5-3.3-.5v1.6zM219.4 173c-2 0-4 .2-5.7 0-1-.1-1.7-.6-2.5-.8-.4 0-.8.1-1.4.3l-.9.3c-3.4.7-7.9.1-11.6.1-.1.3.4.6.6.8.4.3.9.6 1.3.8.1 0 .1.3.2.3.6.4 1.2 1 1.7 1.1.8.2 1.8 0 2.7 0 1.2 0 2.7.1 3.9.2 3.4.2 6.6.8 9.1 1.9 1.4.6 2.6 1.3 3.8 1.9.6.3 1.2.6 1.7 1.1-.6 2.9-.8 5.2-1.7 7.2 0 .1-.3.1-.3.2-.2.4-.2.8-.5 1.1-.1.1-.4.2-.5.3-.2.2-.2.5-.3.6-.8.9-1.8 1.5-2.7 2.2-.7.5-1.4 1.1-2 1.6-.6.4-.9.7-1.3 1.1-.6.7-1.1 1.3-1.7 1.9H210c.3 3.2-.4 5.7 0 8.6 0 0 8.9 1.4 9 .4.1-1.3.3-2.4.9-3 1-1.1 2-2.1 3.1-2.8.6-.4 1.1-.8 1.7-1.1.8-.4 2-.6 2.5-.9.6-.4 1.1-.9 1.6-1.1 0 0 .1-.3.2-.3.5-.4.9-.7 1.4-.9.3 0 .2.3.5.5.2.1.6.2.8.3.3.2.8 1.1.9.5-.4-1.7-.8-3.7-.9-6-.1-2 0-4.1-.3-6-1.5-1.5-3.2-2.9-4.4-4.9-1.2-2.1-1.5-4.5-2.2-7.2-1.7-.2-3.5-.3-5.4-.3zm-66.3 25.7c-1.9.4-3.4 1.2-5.3 1.6-.2.6-.4 1.3-.9 1.6-1.7.1-3.6.5-5.2.3-1.8-.2-3-1.3-4.2-1.9 0-.2-.4-.5-.3 0 .5 3.8.8 7.9 1.2 11.8 3.2 1.7 6.3 3.6 8.9 5.7.4.3.7.6.9.8.1.1.3 0 .5.2.5.4.8 1 1.4 1.1.2-2.3-.2-4.3 0-6.1.3-2.1 1.7-3.6 1.9-5.5 1.9-.8 4-2.1 5.8-2.8.7-.3 1.2-.4 1.7-.6.3-.1.8-.2.9-.6-.3-.2-.7-.3-.8-.8-.9-5-3.4-8.4-6.4-11.3-.2 1.7 0 4.2-.1 6.5zm32.4-1.4c-.5 1.1-1.6 2-2 3 0 .1-.3.1-.3.2-.1.2-.1.6-.2.8l-.3.6c-.6 1.3-1.3 2.5-1.7 3.9.5.3 1 .5 1.6.6.6.2 1.3.2 1.9.5.6.3 1.1.8 1.7 1.1.3.2.8.2 1.1.3.4.2.7.3 1.1.5.2 1.4.7 2.7 1.1 3.9.1.3.2.5.3.8.1.5-.1 1.4.6 1.6.4-.2.3-.6.3-.9.4-2.3.3-5 .2-7.4 0-1.1-.2-2.1-.2-3.1 0-.6.2-1.2.2-1.9-.1-1-.5-2-.8-3-.4-1.6-.8-3.1-.5-4.7-1.4.1-1.8-.9-2.7-1.3-.6 1.5-.8 3.3-1.4 4.5zm-68.9 12.5c0-.4-.3-.8-.5-1.3-.5-1.7-.4-3.4 0-5.3 0-.1-.1-.2-.3-.2-.2.4-.9.2-1.1.6.2 1.3.6 2.8.6 4.2 0 1.8-.6 3.4-.9 4.9.7-.1 1.3-.3 1.9-.5 0-.8.3-1.6.3-2.4z"/><path class="st0" d="M235 157.1c-.2-1.4 2.2-2.1.2-4.5-.8-.9-3.2-2-4.5-2h-2.6c-.6 2.2-.6 4.4-.9 6.3-.4.2-.8.4-1.3.6-.6 0-1.3-.1-1.9-.1h-3.8c-.8 0-2.1-.2-2.9-.2-.8 0-1.7.5-1.7.5l-2.9.6s-1.9.2-2.7-.2c-.8-.3-3.4-1.1-3.4-1.1s-1.3-1-1.3-1.5c0-.3-.5-1.2-.9-2 0-1.1.1-3.8 1.3-5.6.9-.2 2.9-.5 3.7-.4 1.1.2 3.4 0 4 .2.4.1 1.6.6 2.3.9-.1.4 0 .8.1 1.2.5.5 1.9 1.6 2.6 2 1.1-.9 3.3-1.6 4.7-2-.6-4.3-1.3-8.9-.7-12.8-1.9-.2-3.6-1.7-3.8-2.5-9.5 2.9-1.7 4.8-9.5 4.7-2.9 0-4.7-1.9-4.7-4.8 0-5.5 3-4.8 7.8-4.8 1.5 0 5.9.4 9 .4-.6.5-1.2 1-1.2 1.4 1.2.5 2.6.7 3.5 1 .9 1.4 1.5 6.3 5.1 6.3 1.7 0 3.7-1 4.7-1.6.2-2.9.9-8.2.9-9.3 0-2.7-1.5-4.6-6.8-4.6-1.5 0-9.6.7-14.1.8-8 .2-18.3.3-22.4 1.2.5 1.9 3.3 3.8 4.7 5.5.5.7 1.1 1.7 1.5 2.6.3 1.3.7 3.6.7 4.1 0 .7-.2 3.4.2 4.7.4 1.3.4 4.6.2 5.7-.2 1.1-.8 2.3-.8 3.8s0 5.2-.2 6c-.1.4-.4 1.1-.6 1.7-1.8 1.1-4.5 1.3-4.5 4 0 1.2.7 1.1.7 1.6 4.3.5 11.4.5 13 .6 3.6 0 4.5-1.4 5.9-1.4 1.5 0 1.2.2 1.2.2 5.9 1.6-6.4 1 19.9 1.3 1.2 0 4-1.6 4-2.6-.1-.8-1.5-4-1.8-5.9zM81 125.4c-17.4-.7-21.6-.6-23.4-.6-2.1 0-5.8.1-7.5.8-2.9 2.7-2.8 7.3-2.5 9.2.3 2.2-.3 4.4-1 6.6 2.1 1.1 4.3 2.3 5.8 2.3 1.7 0 1.7-.7 2.4-1.3v-2.3c0-1.4-1.4-1.5-1.2-2 .5-.5 1.2-1.6 1.4-2.2.9-1.1-1.2-5.2 3.7-5.2 1.6 0 2.7.6 3.5 1.5l.5 1.7-.3 2s.3 1.3.3 2.2c0 .9-.6.9-.3 1.8 0 .2.1.3.1.5-.1.4-.2.8-.3 1.3-.1.1-.1.2-.1.2s-.1.2 0 .8c0 .1 0 .2-.1.3l.1.1c.1.2.1.4.2.7.6 1.5.6 2.2.6 3.1 0 .9-.3 1.1-.3 2.7 0 1.5-.8 2.6 0 3.6.5.6.7.9.8 1.5-.1 1 .1 2 .4 3 0 .8-.1 1.4-.1 2.5 0 .5 0 1-.1 1.4-2.1 1.8-8 2.9-10.3 3.7v3.6c1.4 1 3.7 1.8 5.1 1.8 1.7 0 15.3-.5 17-.5 2.6 0 5.4 0 6.3-2.5-3.5-2.7-7.9-4.6-10.3-6.6-.9-8.1-2.2-22.7-2.2-23.9 0-1.2.7-4.7.9-6.7.2-.2.4-.6.6-.9.4 0 .7-.1 1.1-.3.1.4-.1.8 1.2.8.9 0 1.3-.3 1.5-.7.7.2 1.4.4 1.9.8.9.7 1.1 1.5 2 2 .1.1.3 0 .4 0 .2 2.5.3 4.8-.2 7.3.9 1.1 2.2 2.4 3 2.4.5-1 2.1-1.2 3.6-1.7 0-2.7.7-6.5.7-7.7.2-1.5.1-6.9-4.9-7.1zm105.8 33.8c-.2-1.5 2.3-2.2.3-4.7-.8-1-3.4-2.1-4.8-2.1h-2.7c-.7 2.3-.7 4.7-1 6.7l-1.4.6s-.1 0-.2.1c-2.2.9-4.7 1.7-5.9 1.7-1.7 0-.3-1-2-1-1.2 0-3.4 1.3-5.3 1.8h-.1s-5-.8-5.9-1c-.8-.2-2.1-1.8-2.1-1.8s-.4-1.3-.8-1.8c-.2-.2-.4-.7-.6-1.1v-.5c0-.4-.1-3.6 1-6 .3-.2.5-.4.6-.5.4-.5 1.7-.8 2.3-.8.6 0 2.9.2 4 .3l2.5.5 1.4.3c.1 0 .1.1.1.1-.2.5-.1 1.1.1 1.6.5.5 2.1 1.7 2.7 2.2 1.2-1 3.6-1.7 5-2.2-.7-4.6-1.4-9.5-.7-13.6-2-.3-3.8-1.9-4-2.6-10.2 3.1-1.8 5.1-10.1 5-1.9 0-3.3-.8-4.2-2.1.2-1 .4-1.9.4-2.2 0-.7.3-2.4.6-3.1.3-.7 1.4-.9 2.3-1.3.9-.4 2.8-.2 4-.4 1.1-.2 4.3-.4 4.3-.4s3.7-.2 4.6-.2c.3 0 .5.1.7.2-.5.4-.9.8-.9 1.3 1.3.5 2.8.7 3.7 1.1 1 1.5 1.6 6.7 5.4 6.7 1.8 0 4-1.1 5-1.7.3-3.1.9-8.7.9-9.9 0-2.9-1.6-4.9-7.3-4.9-1.7 0-10.2.7-15 .9-8.5.2-19.5.4-23.9 1.3.5 2.1 3.5 4 5 5.9 1.1 1.4 2.1 3.7 2.6 5.1 1.3 3.9.2 8.6 1.3 12.7-.4.5-1 1.7-.6 2.4l.8.5c0 .7.2 2.9-1.6 4.8 1.6 7.4-6.4 4.5-6.4 9.3 0 1.3.7 1.2.7 1.7 4.6.5 12.1.6 13.8.6 3.8 0 4.8-1.5 6.3-1.5 1.7 0 1.2.2 1.2.2 6.3 1.7-6.8 1 21.2 1.4 1.2 0 4.3-1.7 4.3-2.8.3-1.4-1.3-4.7-1.6-6.8zm47 45.8c-.3-1.1-1.2-.7-2.1-.9l-1-.7c-.3.3-.7.6-1 .9h-.6c-1.5 0-1.8.7-3 1.4s-.9 2.7-.9 3.9c0 1.1.3 4.6.3 4.6l-2.4 1.6s-3 .9-3.8.9c-.9 0-6.8.7-7.7.4-.9-.2-3 0-3.8 0-.5 0-.8-.1-1.1-.2l-.2-.6.4-.3c-1.3-3.5-3.2-8.6-3.2-9.9v-11.8c2.6-1.7-1-4.2 2.9-5.7.6.5 1.4 1.4 2.1 1.4 2.1-2.3 6.1-3.9 6.5-6.2-1.9-1-4.1-1.5-6.1-1.6-6.2-.4-17-.5-18.4-.5-1.6 0-1.5.7-2.2 1.2.4 1.5 1.4 3.2 2.7 4.1 1.9.1 3.8.6 4.7 1.5.1.1.2.3.3.4 0 .7.1 2.4.2 2.6.1.3-.1 2.9-.1 3.3 0 .4 1.6 6 1.5 6.2-.1.3-.2 3-.2 3l.2 5s-.1 1.8-.1 2.2c0 .4-.1 3.3-.1 3.8s-.2 2.1-.2 2.4c0 .3-.5.8-.7 1-.2.2-.8.8-1.2 1-1.9.9-3.4 1.5-4.9 1.8v2.8c9.6-.5 27.9.1 29.5.1 1 0 2.2 0 3.5-.1 1.8.2 7.1.7 7.1.7s2.4-3.7 2.4-4.3c0-.7.3-5 .3-5.9-.2-1 .7-8.3.4-9.5zm-91.5-27.5c-18.3-.7-22.8-.6-24.6-.6-2.2 0-6.1.1-7.9.8-3 2.8-2.9 7.7-2.7 9.6.3 2.3-.3 4.6-1.1 6.9 2.2 1.2 4.5 2.4 6.1 2.4 1.8 0 1.8-.8 2.6-1.3v-2.4c0-1.4-1.5-1.6-1.3-2.1.6-.6 1.3-1.7 1.5-2.3.9-1.1-1.3-5.5 3.9-5.5 2.3 0 3.6 1.3 4.6 2.6-.2.9-.4 2-.3 2.4.3.7-.3 4.9-.3 4.9v.2c-.3.8-.3 1.7-.5 2.8l.2.2v.7c0 .7.6 3.9.6 5.1 0 1.2-1 3.6-.1 4.7s.1 4.6.1 5.8c0 .6.1 2 .2 3.6-2.7 1.6-7.8 2.5-10 3.3v3.8c1.5 1.1 3.9 1.8 5.4 1.8 1.8 0 16.1-.6 17.9-.6 2.7 0 5.7 0 6.6-2.6-3.7-2.8-8.3-4.8-10.8-6.9-.9-8.5-2.4-23.8-2.4-25.1 0-1 .5-3.6.8-5.6l.8-1.1 1.4-.6 1.1-.1 1.9.3 1.6.9 1.4.7s.9.8 1 1.1c0 .1.1.2.2.3.2 2.2.2 4.4-.2 6.6.9 1.2 2.3 2.5 3.1 2.5.5-1.1 2.2-1.3 3.8-1.8 0-2.8.7-6.8.7-8.1.1-1.3-.1-7.1-5.3-7.3z"/><path class="st0" d="M106.7 212.8c1.4-1.7 2.3-3.7 2.3-5.6 0-.2 0-.6-.1-.9-.2-1.4-.5-4-.5-4.7 0-.9-1-1.3-1.7-2-.7-.6-2.6-2.3-2.6-2.3-1-.6-2.8-2.2-3.8-2.6-.7-.3-1.8-.4-2.9-.4-.3-.1-.4-.2-.4-.2h-1.7l-.8-.2c-.1 0-.2-.1-.2-.1-4.7-2.1-13-2.7-13-8.1 0-3.5.4-5.6 6.4-5.6 3.4 0 6.7.8 9.1 3.9-.2 1.5 1.2 3.7 1.9 5.2h5.7l-.7-.8c.1-3.1.8-7.7.8-8.9 0-1.3-.1-2.9-.3-4.4-.4-1-2.1-1.7-2.6-2.2-2 1-4.9 2-6.4 2-1.3 0-7.5-1.5-8.9-1.5-8.7 0-15.5 3-15.5 10.5 0 10 16.3 15.8 26 15.3 1.8 1.8 1.4 4.6 4.5 5.8v3.4c-1.3 1-2.9 2.7-3.8 3.3-2.6.1-6.5.6-7.8.6-3.7 0-8.2-1.2-7.8-4.9-1.1-.6-2.6-1.4-2.9-2-.3-2.4-.2-5.3-4.8-5.3-1.7 0-2 4.7-1.8 5.9v13.4H78c2.7-2.2 4.2-2 6.5-2 2 0 8.4 1.5 9.9 1.5 4.4 0 9-2.3 12-5.4h.2l.1-.7zm172.7-4c-.2-1.5 2.3-2.2.3-4.7-.8-1-3.4-2.1-4.8-2.1h-2.7c-.7 2.3-.7 4.7-1 6.7-2.1 1-5 2.1-6.7 2.4l-.7.1-.9-.2c-.3-.3 0-.8-1.1-.8-.3 0-.8.1-1.3.3l-6.3.4-3.4.2c-.1-.5-.3-.9-.4-1.1-.6-.7-.9-3.9-.9-3.9s-.3-2.7-.3-3.4c0-.7-.3-2.1-.3-2.1l.4-2.5c.6-.5 1.3-.7 2.3-.7 1.7 0 5.8 1.1 7.4 2.4-.2.5-.1 1.1.1 1.6.5.5 2.1 1.7 2.7 2.2 1.2-1 3.6-1.7 5-2.2-.7-4.6-1.4-9.5-.7-13.5-2-.3-3.8-1.9-4-2.6-10.2 3.1-1.8 5-10.1 5-.7 0-1.4-.1-2-.3 0-1.2 0-2.2-.1-2.6-.3-.9 0-1.6-.3-2.5-.3-.9.3-1.6.3-2.3 0-.7.9-1.6.9-1.6l2.4-.9h-.3 2.5c1.7 0 6.3.4 9.6.4-.7.5-1.2 1-1.2 1.5 1.3.5 2.8.7 3.7 1.1 1 1.5 1.6 6.7 5.4 6.7 1.8 0 4-1.1 5-1.7.3-3.1.9-8.7.9-9.8 0-2.9-1.6-4.9-7.3-4.9-1.7 0-10.2.7-15 .9-8.5.2-19.5.4-23.9 1.3.5 2 3.5 4 5 5.9l.6.9.1.9v1.8s.3 2.5.3 3.4c0 .9 0 4.1.3 4.8.3.7.6 3 .6 3.7v4.1c0 .9.3 1.6 0 2.3-.3.7-.3 3-.3 3s0 1.6-.3 2.3c-.3.7-.9 2.3-.9 2.3l-.9 1.7c-1.7.7-3.3 1.3-3.3 3.5 0 1.3.7 1.2.7 1.7 4.6.5 12.1.6 13.8.6.7 0 1.4-.1 1.9-.1h.5c.9 0 2.4.2 3.3 0 .9-.2 2.1-.5 3.2-.5h.5c.9.7-3.3.4 19.3.6 1.2 0 4.3-1.7 4.3-2.8-.1-1.5-1.6-4.8-1.9-6.9zM46.9 150.6c0-.8-.2-2.2-.6-2.6-.6-.6-1.2-2.7-1.2-2.7l-3.6-1.4c-1-.7-2.1-1.6-2.8-1.9-.5-.2-1.3-.3-2.2-.4l-.6-.1-2.7-.1c-.4-.1-.7-.1-1-.3-5.1-2.3-14-2.9-14-8.7 0-3.7.4-6 6.8-6 3.6 0 7.2.9 9.8 4.2-.2 1.6 1.2 4 2 5.6h6.1l-.7-.8c.1-3.3.9-8.3.9-9.6 0-1.4-.1-3.1-.4-4.7-.4-1.1-2.2-1.8-2.8-2.4-2.1 1.1-5.2 2.2-6.8 2.2-1.4 0-8.1-1.7-9.6-1.7-9.3 0-16.7 3.3-16.7 11.3 0 10.8 17.4 17 27.9 16.5 1.9 1.9 1.5 4.9 4.8 6.3v3.6c-1.4 1.1-3.1 2.9-4.1 3.6-2.8.1-7 .6-8.4.6-4 0-8.8-1.3-8.4-5.3-1.1-.7-2.7-1.5-3.1-2.2-.3-2.6-.2-5.7-5.1-5.7-1.8 0-2.1 5-2 6.4v14.4h6c2.9-2.3 4.5-2.1 7-2.1 2.1 0 9 1.7 10.6 1.7 7.5 0 16-6.4 16-12.6.1-1.1-.6-3.2-1.1-5.1zM269 125.5c-16.5-.7-20.6-.5-22.2-.5-2 0-5.5.1-7.1.8-2.7 2.6-2.6 7-2.4 8.7.2 2.1-.3 4.2-1 6.3 2 1.1 4 2.2 5.5 2.2 1.7 0 1.7-.7 2.3-1.2v-2.2c0-1.3-1.3-1.4-1.2-1.9.5-.5 1.2-1.5 1.3-2 .8-1-1.2-4.9 3.5-4.9l2.5.7c.1.1.3.2.4.3.1.5.3 1.7.5 2.3.3.7.3 2.7.3 2.7v3.2c-.3.8-.3 1.5-.4 2.6l.1.1c-.1.9-.2 1.8-.2 2.3 0 1.1.3 3.3.6 4.4.3 1.1 0 3.3 0 4.9 0 1.5.3 3.8.3 4.4 0 .4.3 1.1.5 1.9-2.3 1.6-7.3 2.5-9.3 3.2v3.5c1.3 1 3.5 1.7 4.9 1.7 1.7 0 14.5-.5 16.2-.5 2.5 0 5.1 0 5.9-2.4-3.3-2.6-7.5-4.4-9.7-6.2-.4-3.7-.9-8.7-1.3-13.2v-12.9l1.1-2.2 1.2-1.1h.5c.6 0 1-.1 1.2-.3l2.1.2c.7.7 1.4 1.2 2.2 1.5.2 2.6.4 5-.1 7.6.8 1.1 2.1 2.3 2.8 2.2.5-1 2-1.2 3.4-1.6 0-2.6.7-6.1.7-7.3-.3-1.9-.4-7.1-5.1-7.3zm-139.7 29c-1.3-.7-2.7-1.8-3.2-2.5-.2-.6.5-1.8.2-2.3-1.9-1.1-1.9-2.8-3.1-4.4-.2-.6-.2-1-.2-1 2.9-1.6 10.9-9.9 10.9-13.3 0-.9-2.9-8.5-4.5-9.3-2.5-1.2-6.5-1.5-9.6-1.5-.5-.4-1.4-1.1-2.1-1.4-6.4-.2-15.2-.2-16.8-.2-1.8 0-5.8 1.1-7.6 1.1-1.6 0-2.9-1.1-4.3-1.1v3c0 1.3 1.4 4.2 2.4 5.9l.3.3.2.5.3 5.6 1.5 5.6s-.3 1.9 0 3c.3 1.2.9 5.6 1.2 6.5.3.9-.3 7.5-.3 7.5l-.9 4.4-.4.8c-.4.4-.6.8-.6 1.2 0 0-.8.6-.8 1.3 0 .7-.6 1.9-.6 1.9l1.4 1c5.1.6 14.1 1.8 15.9 1.8.8 0 1.9-.6 3.1-1.1 1-1 1.9-2.7-.6-4.5v-.3c-.1 0-.1-.1-.2-.1-1.2-.5-3-.3-4.4-1-.6-2.1-1.4-5-2.4-7.8l-.1-.1c0-.4.1-.7.3-1.4.2-.5.2-2.7.3-4.6.5-.7.6-1.4 0-2.1v-.7l.3-.6c1.3-.2 2.7-.3 4-.4l2.3.5 2.7 1.4s1.2 2.8 1.8 3.5c.6.7 1.6 2.4 2.6 3.9-.1.3.1.6.4.9.1.9.1 1.8.1 2.2 0 .7.6 2.3.6 2.3l.6 3.7s-.1 1 .6 2.1c0 0-.7 1.5.2 2.1.5.3.8.3 1.1.4l.8.3s1.2-.1 2.3-.1c1.6.5 3.6 1.4 4.8 1.4.7 0 1.1-.1 1.3-.2l1-.2 1.8-.2h.1c.6 0 1.1.1 1.7.1.4.1.8 0 1 0h.9c1.6 0 2.6-3.7 4-4.8-3.3-2.3-14.5-3.8-12.3-9zM102.2 126c1.4 0 3.8-.6 5.6-.6 2.8 0 17.4.1 17.4 5.4 0 3-8 7-9.8 7-1.8 0-9-.1-13.3-.6.1-3.2-.6-7.5.1-11.2zm89.4 50l.2-.4-.6-1.1-.8.1c-.8.1-2.6.1-2.6.1h-2.6l-3.2-.4c-.6-.1-1.2-.2-1.6-.2-1.4 0-4.9 1.2-6.6 1.4-1.7.9-.6 2.7.6 3.9 1.4.9 2.6 2 2.6 2.8 0 1.2-3.4 5.7-5.2 8.1-.6-.6-1.3-1.1-1.3-1.1s-1.1-.9-1.7-1.5c-.6-.7-1.4-.7-2-1.3-.6-.7-1.1-1.5-1.1-1.5l-1.1-2.9-.5-1.5v-1.4l1.4-1.1c0-.2.1-.4.1-.4s.2-.9.1-1.2c-.1-.2-.2-.8-.4-1.3-.1 0-.2-.1-.3-.1l-.1-.4-1.6-.3c-.3-.1-.5-.1-.7-.1h-3.3l-2.6-.1-1.6.1c-.4-.3-.9-.5-1.5-.5-2.2 0-5.6 1.1-5.6 3.1 0 3.7 5.3 4 8.2 5.2 1.8.7 2.4 4.1 2.5 4.9 1.7 1.8 4.8 5.2 6.3 8.6h-.1l.3.7c.1.2.2.4.2.6h.1l1.5 2.9.6 2.9.5 2.6c-.1 1.1-.3 2.2-.3 3.2-3.1 1-6.8 2.3-9.8 3.8-.2.5-.8 1-.8 2.2v1.9c8.5.1 17.4.4 25.3-.2h.3l.3-.1h.1l.9-.2s-.1-.9-.2-1.2l-.5-1.5-.4-.2h.3c-.2 0-.3-.1-.5-.1-.1-.1-.3-.2-.3-.3-.2-.3-.5-.1-.5-.1s-.6-.4-1.1-.5c-.5-.1-1.1-.3-1.4-.4-.4-.1-1.5-.8-1.5-.8l-.7-.6-.8-.4h-.8l-.4-.1s-.6-.1-.9-.2h-.2c-.1-.2-.2-.5-.2-.8.1-1.6.9-4 .9-4s.9-2.6 1.1-3.3c.3-.7 1.7-3.7 2-4.4.3-.7 2-2.6 2.3-3.3.3-.7 1.1-4.4 1.1-4.4l3.4-7.3-.1-.1c2.4-2.2 6.8-3.5 7.8-4.9-.4-.3-.7-.6-.9-.9z"/></g><g id="Bulls__x26__Sun"><path d="M273.5 75.9c.2 0 0 .3.1.4h.1c.7-.5 1.3-1.1 2.2-1.3 1.7-.2 3.3.4 4.6 1.2.7.5 1.2 1.1 1.8 1.7.4.4 1.1.4 1.6.6 1.5.3 3 .9 4.3 1.7.9.5 1.6 1.5 2.7 1.7 1.3.2 2.5.6 3.6 1.3 1.3.9 2.6 2 4.2 2.3 3.3.4 6 2.2 8.6 4 1.5.9 3.3 1.9 5.1 1.3.5-.2.9-.7 1.1-1.2.2-1.2-.6-2.2-1.4-3-1.6-1.8-4.3-3.4-4-6.1.5-2 2.7-3.1 4.4-3.7 1-.4 2.1-.2 2.9-1 .4-.3.6-1.2 1.3-.9.6.4.6 1 .7 1.6.3 1.9-.2 3.8-1.9 4.9-.8.5-1.7.8-2.7.9 1.5 1.2 2.8 2.6 3.7 4.2.5.9.8 1.8.8 2.9 0 2-1.3 3.8-3.1 4.9-1 .6-2.2.8-3.4.8-.5 0-.9-.1-1.3-.1.2 1 .2 2.3 0 3.3-.1.6-.4 1.2-.4 1.8.3.3.7.4 1.1.4.9 0 2 0 2.4.9.4.9.6 1.9 1 2.8.1.1.2.5.4.4.6-.6 1.2-1.3 2.1-1.1.8.5 1.7 1.2 2.5 1.8.2.2.3.5.3.8.7.3 1.5.8 1.8 1.5.2.5.1 1.1.2 1.6.2.6.8 1.2.3 1.9l-.3.2-2.6.8c-.2 0-.4-.1-.6-.3-1.4-.1-3 .4-4.1-.6-.5-.4-.8-.9-1.2-1.4-.8.4-2 .7-2.8.2-1.7-1.3-3.4-2.6-5.7-2.6-1 .2-2.3.5-3.3.1-.9-.7-2.1-1-2.8-2-1.1-1.1-1.1-2.5-1.5-3.9l-.1-.1c-1.5.4-3 .2-4.5.1-1.2 0-2.4.1-3.5.4-1.4.3-3 .4-4.5.4l-.7.6c.3.1.7.1 1 .3l.3.3c1.2.1 2.6-.1 3.8.2.3.1.6.4.7.6.1.3.1.7-.1 1.1-.6.8-.9 1.8-1.8 2.5-.2.3-.8 0-.9.4-.3 1.2-1.4 2.3-2.6 2.5-.5.1-1 0-1.5-.2-1.4-.5-2.9-.9-4.3-1.3-.5-.1-.9-.6-1.3-.9-.6 0-1.5.2-1.9-.3-.3-.3-.7-1-.7-1-1.3 1.6-2.8 3.3-4.5 4.7-6.9 5.9-17.3 7.8-26.1 4.6-4.8-1.7-9.4-4.9-12.6-9.3 0-.2-.2-.1-.2-.3-.3.6-.7 1.4-1.4 1.6l-2.2.3c-1.7.7-3.4 1.3-5.2 1.9-1 .2-2.2 0-2.9-.6-.6-.5-1-1.1-1.3-1.7-.4-.2-.8 0-1.2-.1-.4 0-.5-.3-.8-.6l-1.5-2.5c-.1-.3-.1-.8 0-1.1.3-.6.9-.8 1.5-.8 1.1-.1 2.3-.4 3.4 0 .5-.6 1.2-.5 1.9-.6h.1c-.3-.4-.8-.6-1.1-.9-2 .5-4.2.2-6.1-.2-1.8-.4-3.3.6-5 .4l-.5 1.1c-.8.9-.9 2.4-2.1 3-.9.2-1.6.8-2.3 1.2-1.4.7-3.2.4-4.7.1-.6 0-1.1 0-1.6.2-.5.4-1 .9-1.5 1.3-.9.4-1.6 1.1-2.6 1.1-.6 0-1.1-.4-1.6-.2-.7.7-1 2-2.1 2.3-1.1.3-2.5.1-3.5-.2-.3.1-.6.4-1 .4-.8-.2-1.5-.4-2.2-.8-.3-.3-.3-.6-.4-.9 0-.5.4-.9.6-1.3.1-.5 0-1.1.3-1.6.4-.8 1.1-1.2 1.8-1.6.1-.5.4-1 .9-1.3.9-.5 1.9-1.6 3-.9l1.2 1.1c1.1-.5.8-1.6 1.4-2.4.3-.6.6-1.3 1.3-1.3.5-.1 1 0 1.5 0 .7-.2 1.4-.5 1.9-1v-.4c-.7-1.3-.9-2.9-.9-4.4-1.2.1-2.6.3-3.8.1-1.9-.3-3.8-1.8-4.5-3.7-.8-1.9-.5-4.4.8-6 1-1.2 2.2-2.3 3.4-3.3-.4-.1-.9-.1-1.3-.2-1.8-.3-3.5-1.9-3.9-3.6-.3-1.2 0-2.3.5-3.2.2-.2.4-.4.7-.3.9.4 1.2.8 2 1.2l.5.3c2.3.8 5.3.8 6.1 3.5.6 2.2-.8 3.8-2.4 5-1.2.9-2.4 2-3 3.3-.3 1-.1 1.9.7 2.6.8.8 2.3.8 3.3.4 1.9-.8 3.7-2.1 5.4-3.4 1.6-1.2 3.6-1.7 5.7-1.8.9-.2 1.8-.6 2.6-1.2 1.3-1.2 2.7-2.3 4.3-2.7.7-.2 1.5-.2 2.3-.3.6-.3 1-1 1.5-1.4 2.2-1.9 5.3-1.9 7.6-3.5 1.4-1.1 2.9-1.7 4.7-1.6.8 0 1.6.2 2.3.5.1-.1-.1-.1 0-.2 4.8-6.3 11.6-9.8 19.2-10.5 5.8-.5 11.2.9 15.9 3.7 2.7 1.5 5.4 3.9 7.5 6.7" fill="#ffc425"/><path class="st0" d="M185.9 75.1c-.4.7-.7 1.4-.7 2.3v.5c.3 2 1.7 3.7 3.6 4.4.4.2.8.2 1.1.3-.9.8-1.9 1.6-2.7 2.6-1 1-1.4 2.5-1.4 3.9 0 .9.2 1.8.4 2.5.8 2.1 3 3.8 5.5 4.1 1.1.2 2 0 2.9-.1 0 .1.2 2 .2 2l.6 1.9s0 .1.1.2c-.4.3-.9.5-1.3.7-.4 0-1.5.1-1.5.1-.2 0-.3.1-.5.1l-.4.2c-.2.1-.3.2-.5.3-.6.7-.8 1.4-1 2l-.3.8c-.1.1-.3.3-.5.4-.3-.4-.6-.9-.6-.9l-.1-.1c-.5-.4-1-.5-1.7-.3-.1 0-.4.2-.6.3l-1.5 1c-.6.4-.7.9-.8 1.2-.2 0-.3 0-.5.1-.8.4-1.4 1.1-1.6 1.9v.1l-.1.7-.1.5c-.1.1-.4.6-.4.7-.1.2-.1.4-.1.6 0 .6.3.9.4 1.1.2.1.4.3.6.3l.5.2 1.2.4c.3.1.7 0 1-.1.1 0 .1-.1.1-.1.1 0 .1.1.2.2l.7.1c.8.2 2 .4 3.2-.2.8-.4 1.3-1.1 1.6-1.7 0 0 .2-.3.3-.5.1 0 .2.1.2.1l.5.1h.2c1 0 1.8-.4 2.3-.7l.6-.3c.1 0 .2-.1.2-.1l.9-.8s.4-.3.5-.4c.7-.3 2-.1 2.8.1 1 .3 2.3.2 3.4-.4.1 0 .1 0 .2-.1l.5-.4c.5-.3.9-.6 1.3-.7.1 0 .2-.1.3-.1 1.1-.6 1.6-1.7 2-2.5.1-.1.3-.5.3-.5.2-.3.4-.8.5-1.3.9.1 1.7 0 2.4-.1l1.1-.2c.8-.1 1.6.1 2.4.2l2 .3h.6c.7 0 1.6.1 2.4-.5.2.1.3.3.5.5h-.1c-.2 0-.6.1-.8.2l-.2.1c-.1.1-.1.2-.2.2-.5-.3-1.2-.4-1.9-.3h-.5l-1.9.3c-.2 0-.3.1-.4.3-.4.4-.7.9-.7 1.5v.3c0 .2.1.3.2.5l1.1 1.9.3.5c.2.3.1.4.5.5 0 0 1.4.3 1.5.3 0 .1.1.2.1.2.3.5.6 1.2 1.3 1.7 1 .9 2.4 1.1 3.6.6 1.6-.5 3.2-1.1 4.8-1.9h.8c.7 0 1.6-.1 2.4-.9.1-.1.1-.1.1-.2l.8-1.4c0 .1 0 .2.1.3.3 1 1.3 1.6 2.5 1.6 1.2-.1 2.1-.4 3-.7l.4-.1c.7-.3 1.7-.4 2.8-.2h.3c1.2-.1 2.1-.7 2.9-1.3 1.5 1.5 3.4 2.3 5.7 2.3.2 0 .4-.1.6-.2l.2-.1c.1-.1.2-.1.3-.2.3-.3.5-.7.5-1.1v-.3h.4c.2 0 .5-.1.7-.3l.1-.1.2-.2c.2-.3.3-.6.3-1 0-.3-.1-.6-.3-.9-.1-.2-.3-.4-.5-.5l-.8-.4c-.6-.4-1.1-1.1-1.6-2l-.7-1.2-.8-.8s-.2-.2-.3-.2c-1-2.8-1.8-5.3-2-8.1v-.2l-.1-.4c-.2-.7-.4-1.5-.8-2.3-1.2-2-2.7-3.7-4.1-5.4l-.5-.6c-.1-.1-.4-.3-.4-.3-.1 0 .2.3.2.3-.1-.1-.3-.5-.4-.6l-5.6-4.6-2.3-1.3-.2-.1c-1.5-.6-3.5-.5-5 .1-.1 0-1.5.9-1.5.9-.7.4-1.3.8-1.9 1-.1 0-1.9.7-1.9.7-1.3.4-2.8.9-4 2l-.7.6c-.7.7-1 .9-1.3.9h-.2c-1.8-.1-3.5.5-5 1.7-.1 0-.5.5-.5.5-.8.7-1.5 1.4-2.2 1.5-.1 0-.2 0-.3.1-.4.2-1 .2-1.6.3 0 0-2 .4-2.1.4-1.7.4-3 1.4-4.3 2.4 0 0-1.1.8-1.1.9l-.3.2c-1.4.8-2.6 1.5-4.1 1.5-.7-.1-1.5-.6-1.7-1.3-.2-.9 0-1.8.8-2.5 0 0 .1-.2.2-.2l1.6-1.4c.9-.7 1.9-1.5 2.6-2.7.8-1.4.6-3.4-.4-4.6-1.3-1.4-2.9-1.7-4.3-2l-1-.2c-.4-.1-.8-.4-1.3-.8l-1.1-.7c-.2-.3-1-.1-1.4.6zm44.7 9.7zm.4 9.4c0 .1 0 .2-.1.3 0-.2 0-.2.1-.3zm6.6.3c-.1.1-.2.2-.2.3l-.1.1c.2-.2.3-.3.3-.4zm9.1 4.4s0 .1.1.2c-.1-.1-.1-.1-.1-.2zm-14.4.9c0 .1 0 .1 0 0-.1.2-.3.3-.3.3-.4.3-.8.8-1.1 1.3-.2-.3-.4-.7-.6-1 .5-.1 1.1-.2 1.7-.5.1 0 .2-.1.3-.1zm6.6 2.5h-.3.3zm-12.2 3zm49.4-30.8c-1.2.1-1.9.8-2.6 1.3-1.4 1.2-2.9 2.3-4.4 3.4-2.3 1.7-4.6 3.4-6.7 5.6-2.1 2.2-2.9 4.9-3.6 7.4l-.3 1.1-.5 2.1c-.9 3.5-1.7 6.7-4.8 8.6-.2.1-.3.3-.4.4-.2.3-.3.6-.3.9 0 .5.3 1.1.7 1.4.1.1.3.1.4.2.4.1.7.1 1.1.1 0 .7.6 1.4 1.3 1.5h.2c2.3.1 4-1.3 5.3-2.6.5.4 1.1.9 1.9 1h.5c.7-.1 1.5-.2 2.2-.2.2.1 1.9.7 1.9.7l1.6.6c.2.1.3.1.5.1 1.4-.1 2.3-1.4 2.5-1.8 0-.1.1-.1.1-.2.1-.2.1-.4.1-.6.1.3.2.5.2.5l-.1-.4.7 2c.1.2.1.1.2.3.8.8 1.7.7 2.2.6h.1l.1.1 1.3.9 1.7.5 2.1.6c.7.2 2.3.7 3.5-.3.9-.6 1.3-1.4 1.5-2.2.2 0 .4-.1.4-.1.2 0 .2-.1.3-.2.7-.5 1.1-1.1 1.4-1.6l.4-.6c.1-.1.2-.4.3-.5l.1-.3c0-.1.1-.3.1-.4 0-.1 0-.3-.1-.4-.1-.3-.4-.9-1.3-1.3-.2-.1-.3-.1-.5-.1h-2.6c-.2 0-.4.1-.6.2-.2-.2-.3-.4-.6-.5l.2-.2c.2.1.3.2.5.2 1.6.2 2.9-.1 4.2-.3 1-.2 2-.4 3-.3.1 0 1.3.1 1.3.1l1.9.1c.5 0 .9-.1 1.3-.2.1.4.1.8.1.8.3 1.3.8 3.3 2.7 4.1-.1 0-.1 0-.2-.1l.5.3c.9.6 2.2 1.4 3.8 1 1.6-.3 3.3.1 4.8 1.1l.1.1.4.3 1.3.8c.8.3 1.8.2 2.7-.2.1.1.2.3.2.3s.8.9 1 1c1 .9 2.3.8 3.2.8h.6c.2 0 .3-.1.5-.2.4.3.8.4.9.4.1 0 .3 0 .4-.1l1.5-.5c.3-.1.6-.3.7-.6.6-1 0-1.9-.1-2.2v-.4c0-.5-.1-1.2-.5-1.9l-.3-.3-.1-.1c-.2-.2-.6-.4-1.1-.6v-.2c-.1-.3 0-.3-.2-.5l-1.5-1.3-.5-.4-1.4-.4c-.6.1-1.1.5-1.6 1.1l-.1-.1-.1-.6-.1-.5-.2-.9-.1-.1c-.2-.5-.6-1.6-1.9-1.9l-1-.1c-.4 0-.9 0-.9-.2 0-.1.1-.3.1-.3s.2-.6.3-.8c.2-.6.3-1.4.3-2.1 0-.4 0-.8-.1-1.2v-.1.1c1.3.2 2.8.1 4.1-.5 2.3-1.1 3.7-3.2 3.7-5.5v-.2c-.2-2.3-1.5-4.5-3.9-6.6.6-.2 1.3-.4 1.9-.8 1.4-.9 2.1-2.5 2.1-4.3 0-.4 0-.9-.1-1.3v-.2c-.3-1.2-1.3-1.3-1.6-1.3-.3 0-.6.1-.9.3l-.3.3-.3.3c-.3.2-.7.3-1.2.3l-1.8.5c-1 .4-3.1 1.3-3.9 3.3 0 .1 0 .1-.1.2-.2.9 0 2 .5 2.9.7 1.1 1.6 1.9 2.4 2.8 1.1 1.1 2.2 2.1 2.5 3.4 0 .2.1.6-.7 1.2-.7.4-2.2.2-3.2-.3l-2.8-1.7c-1.5-1-3-2-4.8-2.6-.1 0-2.5-.7-2.5-.7-1-.2-1.9-.4-2.5-.9-.1-.1-1-.7-1-.7-.9-.6-1.8-1.3-3-1.6l-1.3-.3c-.4-.1-.8-.1-1.1-.3-.7-.7-1.7-1.4-2.8-2-1.5-.7-3.1-1.1-4.7-1.5-.1 0-.3-.3-.4-.5l-1-1c-1.1-.2-2.9-1.4-5.3-1.2zm-.7 7.2zm-2.9 3.1zm-6.7 8.9c0 .1 0 .1 0 0h-.2c-.1.1.2 0 .2 0zm1.6 1.1zm41.7.5h.2c-.1.1-.2 0-.2 0zm-47.3 1.8s0 .1-.1.2l.1-.2zm11.2 4.1s-.5-.8-.5-.9c.4 0 .9 0 1.5.1-.3.5-.4.7-.7 1.3-.1-.3-.2-.4-.3-.5zm11.8.1zm-19.2 1.1zm-.4 1.1s0 .1 0 0c0 .1 0 .1 0 0 0 .1 0 0 0 0zm-.1-.2c0 .1.1.2.2.2-.1 0-.1-.1-.2-.2zm17.3-.8zm-17.1 1c.3.4.7.6.7.8 0 .1-.1.2-.2.2-.7.5-.3-.2-.5-1 0 .1 0 .1 0 0 0 .1 0 .1 0 0 0 .1 0 .1 0 0zm7.2 1zm13.9 3.1c0 .2 0 .3-.1.4 0-.2 0-.3.1-.4zm15.1-21.9zm-99.2.3zm111 25.4z"/><path class="st3" d="M314.1 106.2c-.6-.7-1.7-1.1-1.7-2.1-.2-.4-.3-1-.4-1.5-.2-.4-.3-1-.9-1.1-1-.2-2.2.1-2.9-.8-.7-.7.1-1.5.2-2.2.3-.9.3-2 .2-2.9 0-.5-.4-.9-.3-1.5.2-.4.8-.1 1.1-.1 1.3.4 2.9.2 4.1-.3 1.6-.8 3-2.5 2.9-4.4-.2-2.5-2-4.5-3.9-6.1-.3-.3-.8-.6-.9-1.1 0-1 1-.5 1.6-.7.7-.2 1.3-.3 1.9-.7 1.4-1 1.7-2.7 1.5-4.3 0-.1 0-.4-.3-.4-.3.2-.5.5-.8.7-.9.5-2.1.4-3.1.9-1.2.5-2.7 1.2-3.2 2.6-.1.7 0 1.4.3 1.9 1.5 2.3 4.5 3.8 5 6.6.2 1.1-.4 1.9-1.2 2.6-1.3.8-3.3.5-4.6-.2-2.5-1.3-4.7-3.4-7.5-4.2-1.7-.8-3.8-.6-5.3-1.8-1.1-.8-2.2-1.7-3.5-2.1-.9-.3-1.9-.3-2.7-.7-.8-.8-1.7-1.5-2.7-1.9-1.4-.7-2.9-1-4.4-1.4-.9-.2-1.2-1.2-1.9-1.7-1.2-1-2.6-1.7-4.3-1.6-.7 0-1.2.5-1.8 1-3.6 3.1-7.7 5.3-11 8.9-2.2 2.3-2.8 5.2-3.6 7.9-1.2 4.2-1.7 8.9-5.9 11.5-.1.1-.1.3.1.4 1.1.3 2.2-.2 3-.9.7-1.1 1.5-2.2 2.5-3.3l.2-.1c.1 0 .3.1.2.3-.3.9-1.1 1.6-1.4 2.6-.4 1.1-1.5 2-2.4 2.8v.1c0 .1.1.2.2.3 2.1.1 3.5-1.4 4.9-2.8.1-.1.3-.1.5-.1.6.5 1.2 1.2 2 1.3.8-.1 1.7-.2 2.6-.2 1.2.4 2.4.9 3.7 1.3.6 0 1.1-.6 1.4-1.2.3-.6-.1-1.2-.1-1.8.3-.2.7 0 1 0 .1-.1.3-.3.3-.4-.2-1.1-1.2-1.9-1.5-2.9-.5-1.3-2-2.1-2.3-3.4.1-.1.2-.2.3-.1 1 .7 1.9 1.7 3.1 1.9.9.1 1.9.2 2.8.1.1 0 .3-.2.2-.4-.4-.8-.8-1.7-1-2.6-.3-1.2-.6-2.7-.2-4 .1-.1.2-.3.3-.2.2 0 .3.3.3.4.1 2 .2 3.8 1.4 5.4.5.8 1.4 1 2 1.6.2.3.3.9.1 1.2l-1.4 2.1c-.3.5-.7 1-.8 1.5-.1.6 0 1.1 0 1.7-.1 0-.1-.1-.2-.1-.4-.8-.8-1.8-.4-2.7l1.8-2.8.1-.2c-.4-.2-.8-.4-1.3-.5-.2.1-.4.3-.5.5l-1.8 3.2c-.1.4-.2.7-.1 1.1.1.5.2.9.4 1.3.1.7.3 1.1.6 1.7.4.5 1.1 0 1.6.2.6.1.8.8 1.3 1 1.3.4 2.6.7 3.9 1.2.7.2 1.6.5 2.2-.1.8-.4 1-1.3 1.2-2.1.3-.3.8-.2 1.2-.3.7-.5.9-1.3 1.5-1.9l.1-.3c-.1-.2-.3-.3-.4-.4h-2.4c-1.1.1-1.2 1.4-1.7 2.1-.3.5-.8.7-1.3.6-1.1-.3-2.5-.5-3-1.7-.1-.3-.1-.7.2-.9.6-.7 1.3-1.5 2-2 1-.2 2-1 2.6-1.9.3-.4.2-1 .7-1.3.1 0 .3 0 .4.1.2.7-.2 1.3-.4 1.9 2.6.3 4.7-.8 7.2-.7 1.1 0 2 .2 3 .1 1 0 2.2-.5 2.5-1.5.5-1.4.1-3-.1-4.3l.1-.2c.2-.1.3 0 .4.1.4 1.2.8 2.7.9 4.1.2 1.2.7 2.3 1.4 3.3 1.2 1.8 3.3 2.5 5.4 2 2.5-.2 4.7.8 6.3 2.8v.1c0 .1-.1.2-.3.2-1.3-1-2.7-2.1-4.4-2.3-1.8-.3-3.4.5-5.1-.1-1.9-.6-3.3-2.5-4-4.2h-.2c-.1 0-.2.2-.3.3l.2 1.5c.3 1.2.7 2.6 1.9 3.1 1 .6 1.9 1.4 3.2 1.1 2.1-.5 4.3.1 5.9 1.3.5.3 1 .9 1.5 1.1.6.3 1.4.1 1.9-.3 1.2-.4 1.5 1.1 2.3 1.6.7.7 2 .4 3 .4l.2-.1c-.1-1-.4-1.7-.8-2.6-1.1.2-1.7-1.1-2.4-1.9zm-47.5-2.5c-.3.2-.8.1-1.1 0-.4-.2-.5-.7-.6-1.2 0-.1 0-.2.1-.3.5 0 1 .1 1.3.5.2.3.4.7.3 1zm.5-7.9c-.1.1-.2.3-.4.2-.5-.2-.4-.9-1-.8-.4 0-.7.4-1.1.5-.6.5-1.4 1.1-1.6 1.9-.1.3-.1.7-.3.9-.2 0-.4-.1-.4-.2-.1-1.1.3-2.1 1.1-2.8.8-.6 1.3-1.5 1.9-2.2.4-.1.6.2.8.4.4.5.7 1.1 1 1.8v.3zm9.4-13.2c-1 .9-2.1 1.9-2.8 3-.3.4-.4.8-.6 1.1 0 0-.1.1-.2 0-.2-.6 0-1.1.2-1.7.5-1.3 1.6-2.5 2.7-3.4.3-.2.8-.2.9.1.1.4-.1.7-.2.9zm-27.1 21.7c-1.4-.8-2-2.4-2.8-3.6-.3-.4-.8-.7-1.1-1.2-1-2.7-1.9-5.5-2.1-8.6-.2-.8-.4-1.6-.8-2.3-1.3-2.1-2.9-3.9-4.5-5.8-.1-.1-.4-.3-.4-.4l-5.6-4.6c-.7-.5-1.5-.8-2.2-1.2-1.2-.4-2.8-.4-3.9.1-1.2.6-2.3 1.5-3.5 2-1.8.8-3.9 1-5.5 2.4-.9.8-1.7 2-3 1.8-1.5-.1-2.9.5-4 1.4-1 .9-2 2-3.3 2.3-1.2.5-2.6.3-3.8.7-1.9.5-3.4 2-5 3.1-1.6.9-3.2 1.9-5.2 1.9-1.3-.1-2.6-1-3-2.3-.4-1.5 0-3 1.2-3.9 1.2-1.4 3.1-2.3 4-3.9.5-.9.4-2.3-.2-3.1-1.2-1.3-3-1.3-4.6-1.7-1-.3-1.8-1.1-2.7-1.6-.4.5-.5 1.1-.4 1.8.2 1.5 1.3 2.8 2.7 3.3.8.4 1.8.1 2.6.3.2.1.5.3.5.6 0 .2-.1.5-.3.6-1.3 1.1-2.7 2.2-3.8 3.5-1.2 1.3-1.3 3.5-.7 5.1.7 1.8 2.6 3 4.4 3.3 1.3.2 2.5-.1 3.8-.4.2 0 .2.2.3.3.1 1.1 0 2 .2 3 .2.9.5 1.5.8 2.4 0 .3 0 .6-.2.9-.7.5-1.4.9-2.1 1.2l-1.8.1-.4.2c-.7.8-.7 1.6-1.1 2.5-.6.9-1.6 1.4-2.5 1.9-.3.4-.6.9-1 1.3-.3.3-.7.4-1.1.4-.6.7-.8 1.7-1 2.7 1 .1 2.1.7 3.1.1.9-.4 1.1-1.5 1.7-2.1.5-.6 1.3-.1 1.9 0 .9 0 1.6-.6 2.3-.9.5-.4 1-1 1.5-1.3 1.1-.5 2.6-.2 3.7 0 .9.2 1.8.1 2.6-.3.7-.4 1.4-1 2.2-1.2.7-.4 1.1-1.2 1.4-1.9.2-.6.8-1.1.8-1.8-.2-.2-.4-.5-.7-.5-.4.5-.6 1-1 1.5-1.5 2.1-4 2.5-6.5 2.5-2.6-.1-4.9.7-6.6 2.7-.1.1-.3 0-.4-.1-.1-.3.2-.4.3-.7 1.6-2.2 4-2.7 6.6-2.8 1.4-.1 2.7-.3 3.9-.9 1.3-.7 2.3-2 2.8-3.4.3-1.5.4-3.1.8-4.5 0-.1.2-.2.3-.2.1 0 .3.1.3.3-.3 1.5-.4 3.2.1 4.6 1.1 1.5 3.1.5 4.7.4 1.6-.1 3 .4 4.5.5.8 0 1.6.2 2.2-.3.2-.3 0-.6-.1-.8 0-.4-.4-1 0-1.4.1-.1.3 0 .4.1.2.6.3 1.2.7 1.7.7 1 1.9 1.7 2.9 2.3 1 .7 1.8 1.6 1.9 2.8 0 .6-.6 1-1 1.3-.8.4-1.7.7-2.6.6-1.2-.6-1.6-1.9-2.4-2.9-.4-.5-1.1-.6-1.7-.5-.7.1-1.4.1-2 .3-.2.1-.2.4-.2.6.4.8.9 1.5 1.4 2.3.5.3 1.3-.2 1.8.4.4.6.7 1.3 1.3 1.8.6.5 1.5.8 2.3.4 1.7-.5 3.5-1.1 5.1-2h.5c.7-.1 1.4 0 1.9-.5.5-.7.9-1.5 1.3-2.3.4-.5.2-1.4 0-1.9-.8-1-1.2-2.1-1.7-3.2-.4-.1-.8-.4-1.2-.3-.2.1-.5 0-.6.3l1.9 3.7c.1.3.3.7.2 1.1-.3.8-.7 1.5-1.3 2.1-.1.1-.3.1-.4 0 .2-.8.6-1.7.5-2.6l-1.8-3.3c-.2-.4-.6-.8-.6-1.4 0-.2.2-.4.4-.5.8-.3 1.8-.2 2.4-.8.8-1.2 1.3-2.5 1.5-3.9 0-.1.1-.2.2-.2s.2.1.2.2c.2 1.6-.1 3.3-1 4.5 0 .2-.1.4.1.5.9.3 1.8 0 2.6-.4 1 0 1.9-.2 2.7-.4.1 0 .2.1.2.2-.6.7-.9 1.4-1.1 2.2-.7.7-1.7 1.4-1.8 2.4.1.5.6 0 .9.1.1 0 .2.1.2.3l-.7 1c-.4.6.1 1.3.1 1.9.2.5.7.7 1.2.7 1.1 0 2-.4 2.9-.8 1-.4 2.3-.4 3.4-.2 1.1-.1 1.9-.8 2.7-1.5.4 0 .8.3 1.2.6 1.3 1.4 2.9 1.9 4.8 1.9l.2-.1c.1-.1.1-.3-.1-.4l-1.1-.6c-.8-.5-1.7-1.1-2-2-.2-.8-.7-1.6-1.1-2.4-.2-.4-.5-.7-.7-1.1 0 0 .1-.1.2-.1 1.2.4 1.9 1.6 2.5 2.7.9 1.2 2.2 2.3 3.9 2l.1-.1c.1-.1 0-.2 0-.3l-.9-.3zm-19.1-16.2s-.1.1-.2 0c-.2-1-.4-1.9-.8-2.9-.2-.5-.9-1-.6-1.6.1-.1.4-.2.6-.1.4.3.6.7.8 1 .5 1.1.5 2.5.2 3.6zm9 15.5c-.4.1-.9.2-1.4.2-.1 0-.3-.1-.2-.3.2-.6.8-1.3 1.5-1.4.2 0 .4 0 .5.2 0 .4 0 1-.4 1.3zm2.8-6.4c-.1.2-.1.6-.4.7-.1 0-.3 0-.3-.2 0-.6 0-1.3-.4-1.8-.4-.4-.9-1.2-1.5-1.2-.5.1-.8.7-1.1 1.1h-.1c-.3-.7.3-1.2.5-1.8.4-.4.3-1.6 1.2-1.2.6.3.7 1 1.2 1.4.7.9 1.2 1.8.9 3zm-21.8 7.3c.5.5.4 1.3 1 1.7.7.1 1.3-.2 1.9-.6.3-.3-.1-.6-.2-.9-.3-.4-.1-1.3-.8-1.4-.8.1-1.5.1-2.3.1l-.2.1c-.2.6.5.6.6 1zm-34 2.4c.3.1.6.1.9 0 .7-.4 1.2-1.2 1.6-1.9-.1-.3-.3-.4-.5-.6-.1-.1-.3 0-.5 0-.5.4-1.1.8-1.6 1.2-.2.2-.1.5-.2.8-.1.2.2.4.3.5zm94.4-3c-.3.4-.5.9-.5 1.5.1.6.7.6 1.2.8.4 0 1 .2 1.2-.2.2-.6.4-1.3.5-1.9 0-.2-.2-.3-.4-.2-.6 0-1.4-.1-2 0zm35.3.6c-.5-.4-1 .2-1.2.5.2.6.6 1 1 1.5.2.3.5.5.8.5.3 0 .6-.2.8-.4.2-.2.4-.5.3-.8-.4-.4-1.1-.8-1.7-1.3zm3.8 4.9c-.1-.5 0-1.3-.3-1.8-.3-.2-.6-.6-1-.5-.3.3-.8.6-.7 1.1.3.8.5 1.5.6 2.3.1.2 0 .5.3.5l1.5-.5c.2-.3-.3-.7-.4-1.1zM184.7 107c-.4.2-.8.5-.9 1-.1.7 0 1.5-.5 2 0 .1-.2.3 0 .4.5.2 1 .4 1.5.5h.1c.3-.9.5-1.9.8-2.7v-.2c-.2-.4-.5-.9-1-1z"/></g></svg>