<svg version="1.1" id="Layer_1" xmlns="http://www.w3.org/2000/svg" x="0" y="0" viewBox="0 0 450.8 311" xml:space="preserve"><style>.st0{fill:#333}.st1{fill:#2aaae2}</style><path class="st0" d="M430.1 205.7l2.9-10.9h-53.5c-11.6 0-5.4-10-5.4-10 2-3.2 4.4-6 5.9-7.6 0 0 1.4-1.3 1.6-1.6 1.4-2.1 3.3-4.2 4.8-7.1 2.2-4 2.9-14.7-3.1-25.7-2.9-5.3-1.3-9.3-1.2-12.8 0-1.1-.5-1.2-.8-.2-1.6 4.5-2.6 10.2-1.3 16.6 1 5.2 3 17.7-1.6 22.9-1.4 1.5-3.2 2.3-5.2 2.1-2.1-.2-3.7-1.4-4.5-3.3-1.8-4.5 2.6-10.9 4.4-14.1 1.9-3.3 1.2-9 .1-15.1-.2-1.3-.7-1.3-.8 0-.2 5.4-1.1 10.4-5.6 15.4-.6.6-1.1 1.3-1.5 1.9h-.1c-.6.8-4.2 3.3-4.5 3.6s-.3 1.2-.3 1.2l.1.1c-.5 4.9-1.6 9.2-3.6 13.7-1.3 3-4.5 5.5-2.8 8.4.6 1 1.1 2 1.7 3.1.5 1.3 1.6 4.6-1.9 5.4-4.3 1-7 1.1-7.6-.3-.8-2.3-1.9-4.2-3.5-4.8-4.2-1.8-8-2.9-12.6-3.7-5.5-.9-11-1.2-16.6-1.4-.6 1.8-1.2 3.7-1.9 5.5-1.4 3.1-5.3 4.6-8.3 4.5-3.1-.1-2.5-4.5-2.5-4.5.2-.5.5-1.1.7-1.6 2.8-6.1 4.5-10.2.9-16.2-6.1-10.3-13.3-20.1-21.8-28.6-2.5-2.5-5.1-5-7.9-7.4-4.3-3.9-8.3-4.9-14.1-4.1-11.4 1.5-22 5.4-32.1 11.1-3.8 2.1-2.8 2.8-2.1 7 .8 4.3 1.4 8.6 2 13 1 7.5 1.9 15 2.5 22.6.6 8.7-3.6 8-6.5 7.7-3-.3-4-5.4-4-5.4-.2-3.4-.5-6.7-.8-10.1-.5-5.5-1-10.9-1.8-16.4-.5-4.2-.3-12.8-4-15-11.2-6.7-23.9-12.1-37-13.4-13.6-1.4-29 11.6-37.5 20.9-6.1 6.1-13.6 14.1-13.8 22.9 0 1.9-.1 3.8-.1 5.7v.1c-.3 8-3.1 9.3-6.8 9.3-3 0-3.2-2.6-3.2-3.6v-.3c.2-4.4-.3-9-.7-13.1-.7-1.1-3-2.2-4.1-3-2.4-1.7-4.8-3.4-7.1-5.2-2.2-2-3.7-7.7-4.1-9.5-.6-5.4-2.7-10.5-6.2-15.2-6.8-9.2-6.4-18.9-4.7-27.3.4-1.8-.5-1.9-1.3-.1-2.8 6.2-6.1 15.8-3 22.9 8.8 19.9 5.2 25.7 4.1 27.4-.9 1.3-2.3 2.1-3.9 2.2-1.4.1-3.5-.3-5.7-2.6-2.4-2.5-8-10.6-6.9-31.7.6-12-1.7-19.3-5-24.4-1.2-1.9-2-1.6-1.1.5 2.7 6.5 3.9 15.5.2 28.8-5.5 19.4 8.1 40.9 13.9 47.6 1.9 2.2 1.2 5 .4 8.7v.2c-.2.8-1.3 3.7-7.1 3.7H31.4L29 197l-8.1 6.5-2.2 1.8-.7 2.7-4.6 17.1-1.8 6.7L5 256.2l-3 10.9h232l-2.7 10-6.8 25.4 18.4-14.7h189.9l16-59.1H424l6.1-23z"/><path class="st0" d="M1.1 271L0 275.2h223.6l-9.7 35.8 5.1-4.1 9.6-35.9zm433.4-50.1l7-26.1h-3.9l-8.2 30.3h20.2l1.2-4.2zM241.9 71.2c9.9 1.8 21.1 4.6 29.5 10.5 6.1-1.6 15.4-1.9 25 .5-9.8-6.6-20.7-11.4-32-15-7.7-2.4-19-6.5-27-3-1.7.8-8.9 3.1-9.3 5.2.2-.1 12.6 1.6 13.8 1.8zm-51.6 13.9c-4.1 1.8-8.2 4-11.8 6.6-2.7 2.4-3.4 5.3-4.2 8.9-1.1 4.8-1.4 9.8-1 14.7.2 3.3-.4 6.3 3.3 6.4 3.1.1 6.2.5 9.3 1.1 10.9 2 20.9 7.3 30 13.5 9.4-5.8 18.9-10.4 29.4-13.7 4.9-1.3 9.9-2.2 15-2.7 3.3-.3 2.8-2.7 3.2-5.6.4-2.9.6-5.8.6-8.7.1-3.6 1.1-9.6-1-12.6-2.3-3.3-5.2-6.1-8.6-8.4-9-5.9-20.5-8.7-31.2-7.8-11.3 1.1-22.6 3.8-33 8.3zm-84.8 67.1c4.2 3 8.4 6 12.7 9.1 4.7-7 8.9-13.8 15-19.8 8.6-7.4 17.1-14 27.5-18.6 1.4-.6 2.8-1.2 4.3-1.7-.3-1.5-.5-3.1-.6-4.6-.3-3.1-.3-6.2-.1-9.4.2-4.4 1.1-8.7 2.5-12.9 2.5-7.4-11.1-9.5-15.9-7-5 2.6-10 5.2-15 7.7-13.7 7.1-22.9 24.4-28.9 37.9-2.3 5.2-4.1 10.8-5.4 16.4.3 1 3.1 2.3 3.9 2.9z"/><path class="st1" d="M280.8 92.3c-3.5.5-6 .5-7.4 3.8-1.3 3-.4 7-.5 10.2-.1 4.5-.5 9-1.4 13.4.3.9 1 1.7 2.1 2.4 12.1 9.6 25.2 20.6 32.8 34.3 1.3 2.4 3.1 4.5 4.5 6.8 2.1 3.3 1.9 4.6 6.3 4.6 9.1.3 18.1 1.5 26.8 4.1 3 .9 4.8-5.1 5.9-10.9 1-4.1 3.3-13.7 5-20.7 3.1-10.2 4.3-20 1.8-28.2-1.8-5.9-4.6-11.9-8.3-17.4-2.4-3.6-4.5-7.5-6.6-11.3-3.2-5.7-3.7-12.9-2.6-17.4-9.2 15.6 10.6 33.1 2.6 41-.8.8-1.6.9-2.8.7-10.7-1.5-10.8-19.9-8.1-30-2.6 4.3-3.4 10.8-3.5 14.8 0 2 .1 3.9.3 5.6l-.1-.2s1.5 9.4-6.4 4.7c-.6-.4-1.1-.8-1.7-1.2-11-7.8-25.3-11.2-38.7-9.1zM164.1 76.5c1.9.2 3.3.8 4.9 1.7 1.8 1 3.4 2.1 4.9 3.5 2.2 1.9 2.7.3 4.9-1 6.8-4 14.2-6.6 21.7-8.8 5-1.5 10.3-1.8 14.9-4.1 3.4-1.7 6.7-3.4 10.1-5-6.2-.9-12.6-.8-19.1 0h.1c-8.5.5-12.3-8.4-13.6-12-.1-.6-.3-1.1-.4-1.6-2.8-10.7-13.7-37.3-3.2-48.9V0c-4.4 1.8-7.6 12.9-7.3 19.7.5 12.8 11.8 36 .8 43.9-11.9 8.5-15.9-16.7-12.1-24.4-3.6 2.6-5.3 9.8-5 15.7 0 0 .3 12.2-.1 13.8-.5 1.5-2.7 7.6-1.5 7.8z"/><path d="M44.9 221.5l21.5 9.9-7.2 26.8H13.4l7.7-28.9 19 9.9 3.1-1.4-21.4-11.1 4.6-17.1 8.1-6.5H74l-6.8 25.4L48 220l-3.1 1.5zm40.8 26.9h2.7l12.1-45H122l-14.7 55H61.4l14.7-55h21.7l-12.1 45zm72.9-2.5h-24.8l-3.3 12.5h-21l14.7-55H170l-11.4 42.5zm-20.5-16.2h2.8l3-11.2h-2.8l-3 11.2zm68.1-9.4h-16.3l-.8 2.8h16.3l-4.1 15.5H185l-.7 2.5h16.3l-4.6 17.2h-38.5l14.7-55h38.5l-4.5 17zm16 38l5.7-21.3h-2.8l-5.7 21.3h-20.7l14.7-55h43.8l-5.4 20.1-8.2 6.5 4.8 6.3-5.9 22.1h-20.3zm9.4-45.8l-3.2 11.8h2.8l3.2-11.8h-2.8z" fill="#fff"/><path class="st1" d="M245.3 258.3l14.7-55h37.3l4.8 6.3-3.7 13.7-8.2 6.5 4.8 6.3-5.9 22.1h-23.3l-26.1 20.9 5.6-20.8zm32.9-45.8l-3.2 11.8h2.8l3.2-11.8h-2.8zm-3.7 24.5h-2.8l-4 14.8h2.8l4-14.8zm61.9-33.6l3.5 32.9-5.9 22.1h-20.1l4.1-15.2h-2.7l-4.1 15.2H291l5.9-22.1 21.3-32.9h18.2zM317 237h2.7l5.7-21.3h-2.7L317 237zm33.8-33.6h22.1l-12.1 45h2.7l3-11.4h22l-5.7 21.3h-46.7l14.7-54.9zm48.9 0h22.1l-12.1 45h2.7l3-11.4h22l-5.7 21.3H385l14.7-54.9z"/><path d="M38.7 153.4V189h-8.9v-19.1c0-2.8-.1-4.4-.2-5s-.5-1-1.1-1.3c-.6-.3-1.9-.4-4-.4h-.9v-4.1c4.3-.9 7.6-2.8 9.8-5.7h5.3zm24.4 12.1v11.9c0 2.7-.1 4.7-.4 5.9s-.9 2.4-1.8 3.5-2 1.8-3.3 2.3c-1.3.5-2.8.7-4.4.7-2.1 0-3.9-.2-5.3-.7-1.4-.5-2.5-1.3-3.4-2.3-.8-1-1.4-2.1-1.8-3.3-.4-1.2-.5-3-.5-5.5v-12.4c0-3.3.3-5.7.8-7.3s1.7-2.9 3.4-3.9 3.7-1.5 6.1-1.5c1.9 0 3.7.3 5.2 1s2.7 1.5 3.4 2.5 1.3 2.1 1.5 3.3.5 3.1.5 5.8zm-8.9-3c0-1.9-.1-3.1-.3-3.5-.2-.5-.6-.7-1.3-.7-.7 0-1.1.3-1.3.8-.2.5-.3 1.7-.3 3.5V180c0 2.1.1 3.3.3 3.7.2.4.6.6 1.3.6s1.1-.2 1.3-.7.3-1.6.3-3.4v-17.7zm38.6-2.7l-2.5 21.1c-.4 3.3-.7 5.6-1 6.8s-.7 2.2-1.4 3c-.6.8-1.5 1.4-2.6 1.7-1.1.4-2.9.6-5.4.6h-5.4v-4.7c1.4 0 2.3-.1 2.7-.2.4-.1.6-.5.6-.9 0-.2-.2-1.3-.5-3.1l-4.9-24.4h8.1l2.9 19.7 1.4-19.7h8zm21.7 15.1H103v6.3c0 1.3.1 2.2.3 2.5s.6.6 1.1.6c.7 0 1.1-.3 1.4-.8.2-.5.3-1.5.3-2.9v-3.8h8.4v2.2c0 1.8-.1 3.2-.3 4.2-.2 1-.8 2-1.6 3.1s-1.9 1.9-3.2 2.5c-1.3.5-2.9.8-4.8.8s-3.5-.3-5-.8c-1.4-.5-2.6-1.3-3.4-2.2-.8-.9-1.4-2-1.7-3.1-.3-1.1-.5-2.8-.5-5V170c0-2.5.3-4.6 1-6 .7-1.5 1.8-2.6 3.4-3.4 1.6-.8 3.4-1.2 5.4-1.2 2.5 0 4.5.5 6.2 1.4 1.6.9 2.8 2.2 3.4 3.8.7 1.6 1 3.8 1 6.6v3.7zm-8.9-4.7v-2.1c0-1.5-.1-2.5-.2-2.9s-.5-.7-1-.7c-.6 0-1 .2-1.1.6-.1.4-.2 1.4-.2 3v2.1h2.5zm19.7.9H117v-2c0-2.3.3-4 .8-5.2.5-1.2 1.6-2.3 3.1-3.2s3.6-1.4 6.1-1.4c3 0 5.3.5 6.8 1.6s2.4 2.4 2.7 3.9.5 4.7.5 9.5V189h-8.6v-2.6c-.5 1-1.2 1.8-2.1 2.3-.9.5-1.9.8-3.1.8-1.6 0-3-.4-4.3-1.3-1.3-.9-1.9-2.8-1.9-5.7v-2.4c0-2.2.3-3.7 1-4.5s2.4-1.7 5.1-2.8c2.9-1.1 4.5-1.9 4.7-2.3.2-.4.3-1.2.3-2.4 0-1.5-.1-2.5-.3-3-.2-.5-.6-.7-1.1-.7-.6 0-1 .2-1.1.6-.1.4-.2 1.4-.2 3v3.1zm2.8 4c-1.4 1-2.2 1.9-2.5 2.6s-.3 1.7-.3 3c0 1.5.1 2.5.3 2.9.2.4.6.7 1.2.7s.9-.2 1.1-.5c.2-.3.3-1.2.3-2.7v-6zm20.8-15.3l-.4 3.8c1.3-2.7 3.2-4.2 5.6-4.4v10.3c-1.6 0-2.8.2-3.6.7s-1.2 1.1-1.4 1.8c-.2.8-.3 2.6-.3 5.4V189H140v-29.2h8.9zm25.4 9.4h-7.9v-1.6c0-1.3-.1-2.2-.2-2.6-.2-.4-.5-.5-1.2-.5-.5 0-.9.2-1.1.5-.2.3-.4.8-.4 1.5 0 .9.1 1.5.2 2 .1.4.5.9 1.1 1.4.6.5 1.9 1.2 3.8 2.2 2.6 1.3 4.3 2.4 5.1 3.6s1.2 2.7 1.2 4.9c0 2.4-.3 4.2-.9 5.4-.6 1.2-1.6 2.1-3.1 2.8-1.4.7-3.2 1-5.2 1-2.3 0-4.2-.4-5.8-1.1-1.6-.7-2.7-1.7-3.3-2.9s-.9-3-.9-5.4V179h7.9v1.8c0 1.6.1 2.6.3 3.1.2.5.6.7 1.2.7s1.1-.2 1.3-.5c.2-.3.4-1 .4-2 0-1.4-.2-2.3-.5-2.6-.3-.4-2.1-1.4-5.2-3.1-2.6-1.5-4.2-2.8-4.8-4-.6-1.2-.9-2.6-.9-4.3 0-2.3.3-4 .9-5.2.6-1.1 1.7-2 3.1-2.6 1.5-.6 3.2-.9 5.1-.9 1.9 0 3.6.2 4.9.7 1.4.5 2.4 1.1 3.1 1.9.7.8 1.2 1.6 1.3 2.2.2.7.2 1.8.2 3.2v1.8zm31 .9v7.1c0 2.6-.1 4.5-.4 5.8-.3 1.2-.8 2.4-1.7 3.4-.9 1.1-2 1.8-3.3 2.4-1.4.5-2.9.8-4.7.8-2 0-3.6-.2-5-.6-1.4-.4-2.4-1.1-3.2-2-.8-.9-1.3-1.9-1.6-3.2-.3-1.2-.5-3.1-.5-5.6v-7.5c0-2.7.3-4.8.9-6.3s1.6-2.7 3.2-3.7 3.5-1.4 5.8-1.4c2 0 3.7.3 5.1.9 1.4.6 2.5 1.4 3.3 2.3s1.3 1.9 1.6 2.9c.4 1.1.5 2.6.5 4.7zm-8.8-2.2c0-1.5-.1-2.4-.2-2.8-.2-.4-.5-.6-1-.6s-.9.2-1.1.6c-.2.4-.3 1.3-.3 2.8V181c0 1.4.1 2.3.3 2.7.2.4.5.6 1 .6s.9-.2 1-.6.3-1.2.3-2.5v-13.3zm23.1-14.5v4.5c-1.8 0-2.9.1-3.2.3-.3.2-.5.6-.5 1.4v.9h3.7v4.6h-2.1V189h-8.9v-23.8h-1.8v-4.6h1.8c0-1.9.1-3.2.2-3.8s.5-1.2 1-1.7 1.2-.9 2.2-1.2 2.4-.4 4.4-.4h3.2z" stroke="#333" stroke-width="2.3" stroke-miterlimit="10" fill="#fff"/></svg>