<?xml version="1.0" encoding="utf-8"?>
<!-- Generator: Adobe Illustrator 21.1.0, SVG Export Plug-In . SVG Version: 6.00 Build 0)  -->
<svg version="1.1" id="Vrstva_1" xmlns="http://www.w3.org/2000/svg" xmlns:xlink="http://www.w3.org/1999/xlink" x="0px" y="0px"
	 viewBox="0 0 841.9 595.3" style="enable-background:new 0 0 841.9 595.3;" xml:space="preserve">
<style type="text/css">
	.st0{fill:#FFF;}
	.st1{clip-path:url(#SVGID_2_);fill:#FFF;}
</style>
<polygon class="st0" points="370.3,235.9 370.3,359.4 402,359.4 402,309.1 438.1,309.1 438.1,283.9 402,283.9 402,261.1
	456.3,261.1 456.3,235.9 "/>
<polygon class="st0" points="326.3,235.9 299.5,315.6 273,235.9 250.7,235.9 223,314.2 197.4,235.9 164.7,235.9 208.7,359.4
	234.4,359.4 260.9,285.3 287,359.4 312.6,359.4 356.8,235.9 "/>
<path class="st0" d="M548.5,332.9l-12.4,26.6h32.4l11.4-26.6H548.5z M593.8,235.9l-38.5,82.4h30.9l20.7-48.2l38.4,89.4h31.9
	l-57.8-123.6H593.8z"/>
<polygon class="st0" points="471.6,235.9 471.6,359.4 503.3,359.4 503.3,309.1 539.4,309.1 539.4,283.9 503.3,283.9 503.3,261.1
	557.6,261.1 557.6,235.9 "/>
<g>
	<defs>
		<rect id="SVGID_1_" x="164.7" y="235.9" width="512.5" height="123.6"/>
	</defs>
	<clipPath id="SVGID_2_">
		<use xlink:href="#SVGID_1_"  style="overflow:visible;"/>
	</clipPath>
	<path class="st1" d="M606.7,352c9.3,0,16.9-7.6,16.9-16.9s-7.6-16.9-16.9-16.9s-16.9,7.6-16.9,16.9S597.3,352,606.7,352"/>
</g>
</svg>
